<svg width="93" height="93" viewBox="0 0 93 93" fill="none" xmlns="http://www.w3.org/2000/svg">
<mask id="mask0_5_2271" style="mask-type:luminance" maskUnits="userSpaceOnUse" x="82" y="20" width="7" height="70">
<path d="M82.832 20.088H88.443V89.5735H82.832V20.088Z" fill="white"/>
</mask>
<g mask="url(#mask0_5_2271)">
<path d="M88.443 89.5736H82.8872V20.1229H88.443V89.5736Z" fill="#DCE5F0"/>
</g>
<mask id="mask1_5_2271" style="mask-type:luminance" maskUnits="userSpaceOnUse" x="9" y="20" width="75" height="70">
<path d="M9.17603 20.088H83.08V89.5735H9.17603V20.088Z" fill="white"/>
</mask>
<g mask="url(#mask1_5_2271)">
<path d="M9.27002 20.1229H82.8873V89.5736H9.27002V20.1229Z" fill="#C7D1E1"/>
</g>
<mask id="mask2_5_2271" style="mask-type:luminance" maskUnits="userSpaceOnUse" x="82" y="8" width="7" height="13">
<path d="M82.832 8.92798H88.443V20.336H82.832V8.92798Z" fill="white"/>
</mask>
<g mask="url(#mask2_5_2271)">
<path d="M82.8872 9.01123H88.443V20.1228H82.8872V9.01123Z" fill="#7399F4"/>
</g>
<path d="M9.27002 9.01135H82.8873V20.1229H9.27002V9.01135Z" fill="#7EA8F8"/>
<path d="M9.27002 20.1229H82.8873V78.461C82.8873 81.5262 80.3956 84.0168 77.3315 84.0168H9.27002V20.1229Z" fill="#EFFBFF"/>
<mask id="mask3_5_2271" style="mask-type:luminance" maskUnits="userSpaceOnUse" x="16" y="3" width="5" height="12">
<path d="M16.12 3.45557H20.584V14.632H16.12V3.45557Z" fill="white"/>
</mask>
<g mask="url(#mask3_5_2271)">
<path d="M18.2987 14.5671C17.1498 14.5671 16.215 13.6362 16.215 12.4833V5.53838C16.215 4.38557 17.1498 3.45557 18.2987 3.45557C19.4467 3.45557 20.3816 4.38557 20.3816 5.53838V12.4833C20.3816 13.6362 19.4467 14.5671 18.2987 14.5671Z" fill="#FFCD42"/>
</g>
<mask id="mask4_5_2271" style="mask-type:luminance" maskUnits="userSpaceOnUse" x="27" y="3" width="5" height="12">
<path d="M27.28 3.45557H31.496V14.632H27.28V3.45557Z" fill="white"/>
</mask>
<g mask="url(#mask4_5_2271)">
<path d="M29.4103 14.5671C28.2624 14.5671 27.3275 13.6362 27.3275 12.4833V5.53838C27.3275 4.38557 28.2624 3.45557 29.4103 3.45557C30.5593 3.45557 31.4941 4.38557 31.4941 5.53838V12.4833C31.4941 13.6362 30.5593 14.5671 29.4103 14.5671Z" fill="#FFCD42"/>
</g>
<mask id="mask5_5_2271" style="mask-type:luminance" maskUnits="userSpaceOnUse" x="38" y="3" width="5" height="12">
<path d="M38.192 3.45557H42.656V14.632H38.192V3.45557Z" fill="white"/>
</mask>
<g mask="url(#mask5_5_2271)">
<path d="M40.5229 14.5671C39.3739 14.5671 38.4391 13.6362 38.4391 12.4833V5.53838C38.4391 4.38557 39.3739 3.45557 40.5229 3.45557C41.6708 3.45557 42.6057 4.38557 42.6057 5.53838V12.4833C42.6057 13.6362 41.6708 14.5671 40.5229 14.5671Z" fill="#FFCD42"/>
</g>
<mask id="mask6_5_2271" style="mask-type:luminance" maskUnits="userSpaceOnUse" x="49" y="3" width="5" height="12">
<path d="M49.3521 3.45557H53.8161V14.632H49.3521V3.45557Z" fill="white"/>
</mask>
<g mask="url(#mask6_5_2271)">
<path d="M51.6344 14.5671C50.4865 14.5671 49.5507 13.6362 49.5507 12.4833V5.53838C49.5507 4.38557 50.4865 3.45557 51.6344 3.45557C52.7824 3.45557 53.7182 4.38557 53.7182 5.53838V12.4833C53.7182 13.6362 52.7824 14.5671 51.6344 14.5671Z" fill="#FFCD42"/>
</g>
<mask id="mask7_5_2271" style="mask-type:luminance" maskUnits="userSpaceOnUse" x="60" y="3" width="5" height="12">
<path d="M60.512 3.45557H64.976V14.632H60.512V3.45557Z" fill="white"/>
</mask>
<g mask="url(#mask7_5_2271)">
<path d="M62.7469 14.5671C61.5979 14.5671 60.6631 13.6362 60.6631 12.4833V5.53838C60.6631 4.38557 61.5979 3.45557 62.7469 3.45557C63.8948 3.45557 64.8297 4.38557 64.8297 5.53838V12.4833C64.8297 13.6362 63.8948 14.5671 62.7469 14.5671Z" fill="#FFCD42"/>
</g>
<mask id="mask8_5_2271" style="mask-type:luminance" maskUnits="userSpaceOnUse" x="71" y="3" width="6" height="12">
<path d="M71.672 3.45557H76.136V14.632H71.672V3.45557Z" fill="white"/>
</mask>
<g mask="url(#mask8_5_2271)">
<path d="M73.8584 14.5671C72.7105 14.5671 71.7747 13.6362 71.7747 12.4833V5.53838C71.7747 4.38557 72.7105 3.45557 73.8584 3.45557C75.0064 3.45557 75.9422 4.38557 75.9422 5.53838V12.4833C75.9422 13.6362 75.0064 14.5671 73.8584 14.5671Z" fill="#FFCD42"/>
</g>
<path d="M66.2189 25.6796H77.3314V32.6245H66.2189V25.6796Z" fill="#FFCD42"/>
<path d="M55.1073 25.6796H66.2189V32.6245H55.1073V25.6796Z" fill="#7EA8F8"/>
<path d="M43.9948 25.6796H55.1073V32.6245H43.9948V25.6796Z" fill="#86E885"/>
<path d="M68.9973 38.1804H77.3315V45.1254H68.9973V38.1804Z" fill="#7EA8F8"/>
<path d="M52.329 38.1804H68.9973V45.1254H52.329V38.1804Z" fill="#FFCD42"/>
<path d="M43.9948 38.1804H52.3289V45.1254H43.9948V38.1804Z" fill="#FA646E"/>
<path d="M62.0524 50.6812H77.3315V57.6261H62.0524V50.6812Z" fill="#FA646E"/>
<path d="M56.4956 50.6812H62.0524V57.6261H56.4956V50.6812Z" fill="#86E885"/>
<path d="M43.9948 50.6812H56.4955V57.6261H43.9948V50.6812Z" fill="#7EA8F8"/>
<path d="M63.4406 63.1819H77.3315V70.1269H63.4406V63.1819Z" fill="#86E885"/>
<path d="M49.5505 63.1819H63.4405V70.1269H49.5505V63.1819Z" fill="#FFCD42"/>
<path d="M43.9948 63.1819H49.5505V70.1269H43.9948V63.1819Z" fill="#FA646E"/>
<path d="M16.215 25.6796H38.4391V38.1803H16.215V25.6796Z" fill="#B4D1FF"/>
<path d="M35.6607 61.7937C35.6607 62.2935 35.6365 62.7924 35.587 63.2904C35.5386 63.7883 35.465 64.2833 35.3671 64.7735C35.2703 65.2647 35.1482 65.75 35.0029 66.2286C34.8576 66.7072 34.689 67.178 34.4982 67.6401C34.3064 68.1022 34.0932 68.5546 33.8569 68.9953C33.6215 69.4371 33.3638 69.8653 33.0857 70.2818C32.8077 70.6974 32.5103 71.0995 32.1925 71.486C31.8758 71.8725 31.5396 72.2436 31.186 72.5972C30.8324 72.9507 30.4614 73.2869 30.0749 73.6037C29.6883 73.9214 29.2863 74.2188 28.8707 74.4969C28.4541 74.7749 28.026 75.0326 27.5842 75.268C27.1434 75.5044 26.691 75.7175 26.2289 75.9093C25.7668 76.1011 25.296 76.2687 24.8175 76.414C24.3389 76.5593 23.8535 76.6814 23.3624 76.7783C22.8722 76.8761 22.3772 76.9497 21.8792 76.9982C21.3813 77.0476 20.8824 77.0718 20.3815 77.0718C19.8817 77.0718 19.3828 77.0476 18.8848 76.9982C18.3869 76.9497 17.8919 76.8761 17.4017 76.7783C16.9105 76.6814 16.4252 76.5593 15.9466 76.414C15.4681 76.2687 14.9972 76.1011 14.5351 75.9093C14.073 75.7175 13.6206 75.5044 13.1799 75.268C12.7381 75.0326 12.3099 74.7749 11.8934 74.4969C11.4778 74.2188 11.0757 73.9214 10.6892 73.6037C10.3027 73.2869 9.93164 72.9507 9.57805 72.5972C9.22446 72.2436 8.8883 71.8725 8.57152 71.486C8.25377 71.0995 7.95636 70.6974 7.67833 70.2818C7.4003 69.8653 7.14261 69.4371 6.90721 68.9953C6.67083 68.5546 6.45771 68.1022 6.26589 67.6401C6.07505 67.178 5.90649 66.7072 5.76117 66.2286C5.61586 65.75 5.4938 65.2647 5.39692 64.7735C5.29908 64.2833 5.22546 63.7883 5.17702 63.2904C5.12761 62.7924 5.10339 62.2935 5.10339 61.7937C5.10339 61.2928 5.12761 60.7939 5.17702 60.296C5.22546 59.798 5.29908 59.303 5.39692 58.8128C5.4938 58.3217 5.61586 57.8373 5.76117 57.3577C5.90649 56.8792 6.07505 56.4084 6.26589 55.9463C6.45771 55.4842 6.67083 55.0318 6.90721 54.591C7.14261 54.1492 7.4003 53.7211 7.67833 53.3045C7.95636 52.8889 8.25377 52.4869 8.57152 52.1003C8.8883 51.7138 9.22446 51.3428 9.57805 50.9892C9.93164 50.6356 10.3027 50.2994 10.6892 49.9827C11.0757 49.6649 11.4778 49.3675 11.8934 49.0895C12.3099 48.8114 12.7381 48.5537 13.1799 48.3183C13.6206 48.082 14.073 47.8688 14.5351 47.677C14.9972 47.4862 15.4681 47.3176 15.9466 47.1723C16.4252 47.027 16.9105 46.9049 17.4017 46.8081C17.8919 46.7102 18.3869 46.6366 18.8848 46.5882C19.3828 46.5387 19.8817 46.5145 20.3815 46.5145C20.8824 46.5145 21.3813 46.5387 21.8792 46.5882C22.3772 46.6366 22.8722 46.7102 23.3624 46.8081C23.8535 46.9049 24.3389 47.027 24.8175 47.1723C25.296 47.3176 25.7668 47.4862 26.2289 47.677C26.691 47.8688 27.1434 48.082 27.5842 48.3183C28.026 48.5537 28.4541 48.8114 28.8707 49.0895C29.2863 49.3675 29.6883 49.6649 30.0749 49.9827C30.4614 50.2994 30.8324 50.6356 31.186 50.9892C31.5396 51.3428 31.8758 51.7138 32.1925 52.1003C32.5103 52.4869 32.8077 52.8889 33.0857 53.3045C33.3638 53.7211 33.6215 54.1492 33.8569 54.591C34.0932 55.0318 34.3064 55.4842 34.4982 55.9463C34.689 56.4084 34.8576 56.8792 35.0029 57.3577C35.1482 57.8373 35.2703 58.3217 35.3671 58.8128C35.465 59.303 35.5386 59.798 35.587 60.296C35.6365 60.7939 35.6607 61.2928 35.6607 61.7937Z" fill="#EFFBFF"/>
<path d="M35.3138 62.835H32.1886C31.6141 62.835 31.1462 62.3671 31.1462 61.7936C31.1462 61.2191 31.6141 60.7512 32.1886 60.7512H35.3138V62.835Z" fill="#636D84"/>
<path d="M8.57538 62.835H5.4502V60.7512H8.57538C9.14985 60.7512 9.61679 61.2191 9.61679 61.7936C9.61679 62.3671 9.14985 62.835 8.57538 62.835Z" fill="#636D84"/>
<path d="M27.994 54.1813C27.5861 53.7744 27.5861 53.1166 27.994 52.7088L30.2018 50.501L31.6743 51.9735L29.4665 54.1813C29.0586 54.5891 28.4009 54.5891 27.994 54.1813Z" fill="#636D84"/>
<path d="M10.5613 73.0903L9.08972 71.6178L11.2975 69.41C11.7053 69.0022 12.3631 69.0022 12.77 69.41C13.1778 69.8169 13.1778 70.4747 12.77 70.8815L10.5613 73.0903Z" fill="#636D84"/>
<path d="M20.3815 51.0289C19.808 51.0289 19.3401 50.561 19.3401 49.9865V46.8613H21.4239V49.9865C21.4239 50.561 20.956 51.0289 20.3815 51.0289Z" fill="#636D84"/>
<path d="M21.4239 76.7249H19.3401V73.5998C19.3401 73.0253 19.808 72.5583 20.3815 72.5583C20.956 72.5583 21.4239 73.0253 21.4239 73.5998V76.7249Z" fill="#636D84"/>
<path d="M11.2975 54.1813L9.08972 51.9735L10.5613 50.501L12.77 52.7088C13.1778 53.1166 13.1778 53.7744 12.77 54.1813C12.3631 54.5891 11.7053 54.5891 11.2975 54.1813Z" fill="#636D84"/>
<path d="M30.2018 73.0903L27.994 70.8815C27.5861 70.4747 27.5861 69.8169 27.994 69.41C28.4009 69.0022 29.0586 69.0022 29.4665 69.41L31.6743 71.6178L30.2018 73.0903Z" fill="#636D84"/>
<mask id="mask9_5_2271" style="mask-type:luminance" maskUnits="userSpaceOnUse" x="2" y="43" width="37" height="37">
<path d="M2.32495 43.6479H38.44V79.8559H2.32495V43.6479Z" fill="white"/>
</mask>
<g mask="url(#mask9_5_2271)">
<path d="M20.3815 43.7361C10.4092 43.7361 2.32495 51.8203 2.32495 61.7936C2.32495 71.7659 10.4092 79.8501 20.3815 79.8501C30.3548 79.8501 38.439 71.7659 38.439 61.7936C38.439 51.8203 30.3548 43.7361 20.3815 43.7361ZM20.3815 75.6835C12.71 75.6835 6.49155 69.4651 6.49155 61.7936C6.49155 54.1211 12.71 47.9027 20.3815 47.9027C28.054 47.9027 34.2724 54.1211 34.2724 61.7936C34.2724 69.4651 28.054 75.6835 20.3815 75.6835Z" fill="#BBC6DB"/>
</g>
<path d="M20.3815 62.835H15.5203C14.9468 62.835 14.4789 62.3671 14.4789 61.7936C14.4789 61.2191 14.9468 60.7512 15.5203 60.7512H19.3401V54.8486C19.3401 54.2742 19.808 53.8063 20.3815 53.8063C20.9559 53.8063 21.4239 54.2742 21.4239 54.8486V61.7936C21.4239 62.3671 20.9559 62.835 20.3815 62.835Z" fill="#FA646E"/>
<mask id="mask10_5_2271" style="mask-type:luminance" maskUnits="userSpaceOnUse" x="2" y="75" width="76" height="10">
<path d="M2.32495 75.64H77.376V84.072H2.32495V75.64Z" fill="white"/>
</mask>
<g mask="url(#mask10_5_2271)">
<path d="M2.32495 75.6836H71.7746V78.461C71.7746 81.531 74.2614 84.0168 77.3314 84.0168H7.88073C4.81173 84.0168 2.32495 81.531 2.32495 78.461V75.6836Z" fill="#DCE5F0"/>
</g>
</svg>
