<svg width="92" height="94" viewBox="0 0 92 94" fill="none" xmlns="http://www.w3.org/2000/svg">
<g clip-path="url(#clip0_5_2352)">
<mask id="mask0_5_2352" style="mask-type:luminance" maskUnits="userSpaceOnUse" x="-1" y="20" width="78" height="73">
<path d="M-0.026001 20.0746H76.9173V92.408H-0.026001V20.0746Z" fill="white"/>
</mask>
<g mask="url(#mask0_5_2352)">
<path d="M70.5132 20.3356H6.10683C2.72008 20.3356 -0.026001 23.0817 -0.026001 26.4684V86.2739C-0.026001 89.6619 2.72008 92.408 6.10683 92.408H70.5132C73.9 92.408 76.6473 89.6619 76.6473 86.2739V26.4684C76.6473 23.0817 73.9 20.3356 70.5132 20.3356Z" fill="#EDEFF1"/>
</g>
<path d="M70.5133 20.3356H35.243V40.2699C35.243 44.4975 38.6828 47.9372 42.9104 47.9372H45.9781V55.7285L55.7173 47.9372H76.6474V26.4684C76.6474 23.0817 73.9 20.3356 70.5133 20.3356Z" fill="#D3D3D3"/>
<mask id="mask1_5_2352" style="mask-type:luminance" maskUnits="userSpaceOnUse" x="-1" y="20" width="78" height="10">
<path d="M-0.026001 20.0746H76.9173V29.664H-0.026001V20.0746Z" fill="white"/>
</mask>
<g mask="url(#mask1_5_2352)">
<path d="M76.6473 29.5361H-0.026001V26.4684C-0.026001 23.0817 2.72008 20.3356 6.10683 20.3356H70.5132C73.9 20.3356 76.6473 23.0817 76.6473 26.4684V29.5361Z" fill="#6E83B7"/>
</g>
<path d="M7.64132 24.9352C7.64132 25.0359 7.63098 25.1354 7.61161 25.2349C7.59223 25.333 7.56253 25.4286 7.52378 25.5229C7.48503 25.6159 7.43852 25.7037 7.38298 25.7877C7.32615 25.8716 7.26286 25.9491 7.19182 26.0202C7.12078 26.0912 7.04328 26.1545 6.95932 26.2101C6.87536 26.2669 6.78753 26.3134 6.69453 26.3521C6.60153 26.3909 6.50594 26.4193 6.40648 26.44C6.30832 26.4594 6.20757 26.4684 6.10682 26.4684C6.00736 26.4684 5.90661 26.4594 5.80844 26.44C5.70898 26.4193 5.6134 26.3909 5.5204 26.3521C5.4274 26.3134 5.33957 26.2669 5.25561 26.2101C5.17165 26.1545 5.09415 26.0912 5.02311 26.0202C4.95207 25.9491 4.88878 25.8716 4.83194 25.7877C4.7764 25.7037 4.72861 25.6159 4.69115 25.5229C4.6524 25.4286 4.62269 25.333 4.60332 25.2349C4.58394 25.1354 4.57361 25.0359 4.57361 24.9352C4.57361 24.8344 4.58394 24.735 4.60332 24.6368C4.62269 24.5374 4.6524 24.4418 4.69115 24.3488C4.72861 24.2558 4.7764 24.1666 4.83194 24.084C4.88878 24 4.95207 23.9225 5.02311 23.8515C5.09415 23.7804 5.17165 23.7159 5.25561 23.6603C5.33957 23.6048 5.4274 23.557 5.5204 23.5182C5.6134 23.4808 5.70898 23.4511 5.80844 23.4317C5.90661 23.4123 6.00736 23.402 6.10682 23.402C6.20757 23.402 6.30832 23.4123 6.40648 23.4317C6.50594 23.4511 6.60153 23.4808 6.69453 23.5182C6.78753 23.557 6.87536 23.6048 6.95932 23.6603C7.04328 23.7159 7.12078 23.7804 7.19182 23.8515C7.26286 23.9225 7.32615 24 7.38298 24.084C7.43852 24.1666 7.48503 24.2558 7.52378 24.3488C7.56253 24.4418 7.59223 24.5374 7.61161 24.6368C7.63098 24.735 7.64132 24.8344 7.64132 24.9352Z" fill="#FFB0AA"/>
<path d="M12.241 24.9352C12.241 25.0359 12.2319 25.1354 12.2113 25.2349C12.1919 25.333 12.1635 25.4286 12.1247 25.5229C12.086 25.6159 12.0382 25.7037 11.9826 25.7877C11.9271 25.8716 11.8638 25.9491 11.7928 26.0202C11.7204 26.0912 11.6429 26.1545 11.5603 26.2101C11.4763 26.2669 11.3872 26.3134 11.2942 26.3521C11.2012 26.3909 11.1056 26.4193 11.0074 26.44C10.908 26.4594 10.8085 26.4684 10.7078 26.4684C10.607 26.4684 10.5076 26.4594 10.4081 26.44C10.3099 26.4193 10.2144 26.3909 10.1214 26.3521C10.0284 26.3134 9.93923 26.2669 9.85527 26.2101C9.7726 26.1545 9.6951 26.0912 9.62406 26.0202C9.55173 25.9491 9.48844 25.8716 9.43289 25.7877C9.37735 25.7037 9.32956 25.6159 9.29081 25.5229C9.25206 25.4286 9.22364 25.333 9.20427 25.2349C9.1836 25.1354 9.17456 25.0359 9.17456 24.9352C9.17456 24.8344 9.1836 24.735 9.20427 24.6368C9.22364 24.5374 9.25206 24.4418 9.29081 24.3488C9.32956 24.2558 9.37735 24.1666 9.43289 24.084C9.48844 24 9.55173 23.9225 9.62406 23.8515C9.6951 23.7804 9.7726 23.7159 9.85527 23.6603C9.93923 23.6048 10.0284 23.557 10.1214 23.5182C10.2144 23.4808 10.3099 23.4511 10.4081 23.4317C10.5076 23.4123 10.607 23.402 10.7078 23.402C10.8085 23.402 10.908 23.4123 11.0074 23.4317C11.1056 23.4511 11.2012 23.4808 11.2942 23.5182C11.3872 23.557 11.4763 23.6048 11.5603 23.6603C11.6429 23.7159 11.7204 23.7804 11.7928 23.8515C11.8638 23.9225 11.9271 24 11.9826 24.084C12.0382 24.1666 12.086 24.2558 12.1247 24.3488C12.1635 24.4418 12.1919 24.5374 12.2113 24.6368C12.2319 24.735 12.241 24.8344 12.241 24.9352Z" fill="#FFE352"/>
<path d="M16.8419 24.9352C16.8419 25.0359 16.8315 25.1354 16.8122 25.2349C16.7928 25.333 16.7631 25.4286 16.7243 25.5229C16.6869 25.6159 16.6391 25.7037 16.5835 25.7877C16.5267 25.8716 16.4634 25.9491 16.3924 26.0202C16.3213 26.0912 16.2438 26.1545 16.1599 26.2101C16.0759 26.2669 15.9881 26.3134 15.8951 26.3521C15.8021 26.3909 15.7065 26.4193 15.607 26.44C15.5089 26.4594 15.4094 26.4684 15.3087 26.4684C15.2079 26.4684 15.1085 26.4594 15.009 26.44C14.9108 26.4193 14.814 26.3909 14.721 26.3521C14.628 26.3134 14.5401 26.2669 14.4562 26.2101C14.3722 26.1545 14.2947 26.0912 14.2237 26.0202C14.1526 25.9491 14.0893 25.8716 14.0338 25.7877C13.977 25.7037 13.9305 25.6159 13.8917 25.5229C13.853 25.4286 13.8233 25.333 13.8039 25.2349C13.7845 25.1354 13.7742 25.0359 13.7742 24.9352C13.7742 24.8344 13.7845 24.735 13.8039 24.6368C13.8233 24.5374 13.853 24.4418 13.8917 24.3488C13.9305 24.2558 13.977 24.1666 14.0338 24.084C14.0893 24 14.1526 23.9225 14.2237 23.8515C14.2947 23.7804 14.3722 23.7159 14.4562 23.6603C14.5401 23.6048 14.628 23.557 14.721 23.5182C14.814 23.4808 14.9108 23.4511 15.009 23.4317C15.1085 23.4123 15.2079 23.402 15.3087 23.402C15.4094 23.402 15.5089 23.4123 15.607 23.4317C15.7065 23.4511 15.8021 23.4808 15.8951 23.5182C15.9881 23.557 16.0759 23.6048 16.1599 23.6603C16.2438 23.7159 16.3213 23.7804 16.3924 23.8515C16.4634 23.9225 16.5267 24 16.5835 24.084C16.6391 24.1666 16.6869 24.2558 16.7243 24.3488C16.7631 24.4418 16.7928 24.5374 16.8122 24.6368C16.8315 24.735 16.8419 24.8344 16.8419 24.9352Z" fill="#98CA69"/>
<path d="M12.2409 67.8728H6.10682C4.41345 67.8728 3.04041 66.4998 3.04041 64.8051V58.6723C3.04041 56.9776 4.41345 55.6046 6.10682 55.6046H12.2409C13.9356 55.6046 15.3087 56.9776 15.3087 58.6723V64.8051C15.3087 66.4998 13.9356 67.8728 12.2409 67.8728Z" fill="#98CA69"/>
<path d="M19.9083 38.7367H73.5797" stroke="#D3D3D3" stroke-width="12.3667" stroke-miterlimit="10"/>
<path d="M20 62H73.6713" stroke="#D3D3D3" stroke-width="8" stroke-miterlimit="10"/>
<path d="M12.2409 47.9372H6.10682C4.41345 47.9372 3.04041 46.5654 3.04041 44.8708V38.7366C3.04041 37.042 4.41345 35.6702 6.10682 35.6702H12.2409C13.9356 35.6702 15.3087 37.042 15.3087 38.7366V44.8708C15.3087 46.5654 13.9356 47.9372 12.2409 47.9372Z" fill="#98CA69"/>
<path d="M12.2409 87.8071H6.10682C4.41345 87.8071 3.04041 86.4353 3.04041 84.7406V78.6065C3.04041 76.9119 4.41345 75.5401 6.10682 75.5401H12.2409C13.9356 75.5401 15.3087 76.9119 15.3087 78.6065V84.7406C15.3087 86.4353 13.9356 87.8071 12.2409 87.8071Z" fill="#98CA69"/>
<path d="M20 81H73.6713" stroke="#D3D3D3" stroke-width="8" stroke-miterlimit="10"/>
<path d="M70.5133 20.3356H35.243V29.5361H76.6474V26.4684C76.6474 23.0817 73.9 20.3356 70.5133 20.3356Z" fill="#466089"/>
<mask id="mask2_5_2352" style="mask-type:luminance" maskUnits="userSpaceOnUse" x="36" y="0" width="56" height="53">
<path d="M36.576 0.400024H91.9821V52.8107H36.576V0.400024Z" fill="white"/>
</mask>
<g mask="url(#mask2_5_2352)">
<path d="M85.848 0.400024H42.9104C39.5236 0.400024 36.7762 3.14611 36.7762 6.53415V40.2699C36.7762 43.6579 39.5236 46.404 42.9104 46.404H47.5113V52.5381L55.1786 46.404H85.848C89.2347 46.404 91.9821 43.6579 91.9821 40.2699V6.53415C91.9821 3.14611 89.2347 0.400024 85.848 0.400024Z" fill="#6E83B7"/>
</g>
<path d="M64.3791 24.9352V8.06732C55.0636 8.06732 47.5112 15.6197 47.5112 24.9352C47.5112 34.2507 55.0636 41.8031 64.3791 41.8031C73.6946 41.8031 81.247 34.2507 81.247 24.9352H64.3791Z" fill="#466089"/>
<path d="M64.3791 23.402V6.53412C55.0636 6.53412 47.5112 14.0865 47.5112 23.402C47.5112 32.7175 55.0636 40.2699 64.3791 40.2699C73.6946 40.2699 81.247 32.7175 81.247 23.402H64.3791Z" fill="#80D6FB"/>
<path d="M65.9124 5.00092V21.8688H82.7802C82.7802 12.5533 75.2291 5.00092 65.9124 5.00092Z" fill="#466089"/>
<path d="M66.6796 4.23364V21.1015H83.5474C83.5474 11.786 75.9951 4.23364 66.6796 4.23364Z" fill="#FFE352"/>
<path d="M64.3792 23.402L52.4519 35.3292C55.5041 38.3827 59.7201 40.2699 64.3792 40.2699C73.6947 40.2699 81.247 32.7175 81.247 23.402H64.3792Z" fill="#FFB0AA"/>
</g>
<defs>
<clipPath id="clip0_5_2352">
<rect width="92" height="94" fill="white"/>
</clipPath>
</defs>
</svg>
