<svg width="89" height="105" viewBox="0 0 89 105" fill="none" xmlns="http://www.w3.org/2000/svg">
<mask id="mask0_5_2402" style="mask-type:luminance" maskUnits="userSpaceOnUse" x="0" y="16" width="72" height="89">
<path d="M0.158569 16.3885H71.7339V105H0.158569V16.3885Z" fill="white"/>
</mask>
<g mask="url(#mask0_5_2402)">
<path fill-rule="evenodd" clip-rule="evenodd" d="M70.0754 105H1.70587C0.884741 105 0.268555 104.384 0.268555 103.564V38.3378H17.7213C20.1847 38.3378 22.0319 36.4919 22.0319 34.0313V16.3912H49.3395C49.3395 16.8011 49.3395 17.4173 49.3395 17.8272C49.3395 23.3647 51.5979 28.6987 55.4986 32.5953C59.3993 36.4919 64.7374 38.749 70.2803 38.749C70.6916 38.749 71.1015 38.749 71.5127 38.749V103.564C71.5127 104.384 70.8965 105 70.0754 105ZM61.8627 97.4102H9.71358C8.89245 97.4102 8.27626 96.7954 8.27626 95.9743C8.27626 95.1545 8.89245 94.5383 9.71358 94.5383H61.8627C62.6839 94.5383 63.3001 95.1545 63.3001 95.9743C63.3001 96.7954 62.6839 97.4102 61.8627 97.4102ZM61.8627 86.5387H9.71358C8.89245 86.5387 8.27626 85.9239 8.27626 85.1041C8.27626 84.283 8.89245 83.6682 9.71358 83.6682H61.8627C62.6839 83.6682 63.3001 84.283 63.3001 85.1041C63.3001 85.9239 62.6839 86.5387 61.8627 86.5387ZM61.8627 75.6686H9.71358C8.89245 75.6686 8.27626 75.0524 8.27626 74.2327C8.27626 73.4115 8.89245 72.7967 9.71358 72.7967H61.8627C62.6839 72.7967 63.3001 73.4115 63.3001 74.2327C63.3001 75.0524 62.6839 75.6686 61.8627 75.6686ZM61.8627 64.7971H9.71358C8.89245 64.7971 8.27626 64.1823 8.27626 63.3612C8.27626 62.5414 8.89245 61.9266 9.71358 61.9266H61.8627C62.6839 61.9266 63.3001 62.5414 63.3001 63.3612C63.3001 64.1823 62.6839 64.7971 61.8627 64.7971ZM61.8627 53.927H9.71358C8.89245 53.927 8.27626 53.3108 8.27626 52.4911C8.27626 51.6699 8.89245 51.0551 9.71358 51.0551H61.8627C62.6839 51.0551 63.3001 51.6699 63.3001 52.4911C63.3001 53.3108 62.6839 53.927 61.8627 53.927ZM61.8627 43.0555H9.71358C8.89245 43.0555 8.27626 42.4407 8.27626 41.6196C8.27626 40.7998 8.89245 40.1836 9.71358 40.1836H61.8627C62.6839 40.1836 63.3001 40.7998 63.3001 41.6196C63.3001 42.4407 62.6839 43.0555 61.8627 43.0555ZM49.7494 32.3904H35.7888C34.9663 32.3904 34.3515 31.7742 34.3515 30.9544C34.3515 30.1333 34.9663 29.5184 35.7888 29.5184H49.7494C50.5705 29.5184 51.1867 30.1333 51.1867 30.9544C51.1867 31.7742 50.5705 32.3904 49.7494 32.3904Z" fill="white"/>
</g>
<path fill-rule="evenodd" clip-rule="evenodd" d="M17.4428 35.3933H1.45306C0.837865 35.3933 0.428638 34.9863 0.224024 34.5807C-0.186559 33.9723 0.0180548 33.3626 0.428638 32.957L16.417 16.9224C16.8276 16.5168 17.4428 16.5168 18.0566 16.5168C18.4672 16.9224 18.8764 17.3294 18.8764 17.9378V33.9723C18.8764 34.7835 18.2626 35.3933 17.4428 35.3933Z" fill="white"/>
<mask id="mask1_5_2402" style="mask-type:luminance" maskUnits="userSpaceOnUse" x="51" y="0" width="38" height="37">
<path d="M51.929 0H88.1428V36.1935H51.929V0Z" fill="white"/>
</mask>
<g mask="url(#mask1_5_2402)">
<path fill-rule="evenodd" clip-rule="evenodd" d="M70.2802 35.8772C65.3534 35.8772 60.8365 34.0314 57.5507 30.5447C54.0612 27.2629 52.2126 22.75 52.2126 17.8273C52.2126 7.98192 60.4253 -0.0176392 70.2802 -0.0176392C80.1351 -0.0176392 88.1428 7.98192 88.1428 17.8273C88.1428 27.8777 80.1351 35.8772 70.2802 35.8772ZM76.2344 18.2372C75.4133 18.2372 74.7971 17.6224 74.7971 16.8013V15.1604H73.1548C72.3337 15.1604 71.7175 14.5455 71.7175 13.7244C71.7175 12.9046 72.3337 12.2898 73.1548 12.2898H74.7971V10.444C74.7971 9.62283 75.4133 9.008 76.2344 9.008C77.0555 9.008 77.6717 9.62283 77.6717 10.444V12.2898H79.314C80.1351 12.2898 80.7513 12.9046 80.7513 13.7244C80.7513 14.5455 80.1351 15.1604 79.314 15.1604H77.6717V16.8013C77.6717 17.6224 77.0555 18.2372 76.2344 18.2372ZM61.0415 26.8516C60.8365 26.8516 60.6316 26.8516 60.4253 26.8516C59.8091 26.4417 59.3992 25.622 59.8091 24.8008L65.7633 9.82777C65.7633 9.62282 65.7633 9.62283 65.9696 9.41788C66.1746 9.21294 66.3795 9.21294 66.3795 9.21294C66.5844 9.008 66.5844 9.008 66.7907 9.008C66.7907 9.008 66.7907 9.008 66.9957 9.008H67.2006C67.4069 9.008 67.4069 9.008 67.6119 9.21294C67.6119 9.21294 67.8168 9.21294 68.0218 9.41788C68.2281 9.62283 68.2281 9.82777 68.433 9.82777L74.3872 24.8008C74.5921 25.622 74.1823 26.4417 73.5661 26.8516C73.3598 26.8516 73.1548 26.8516 72.9499 26.8516C72.3337 26.8516 71.9238 26.4417 71.7175 26.0318L69.8703 21.3141H64.1211L62.4788 26.0318C62.0676 26.4417 61.6577 26.8516 61.0415 26.8516ZM68.6379 18.4422L66.9957 14.3406L65.3534 18.4422H68.6379Z" fill="white"/>
</g>
</svg>
