<?xml version="1.0" encoding="UTF-8"?>
<svg id="Shelf" xmlns="http://www.w3.org/2000/svg" viewBox="0 0 470.59 535.58">
  <g>
    <g id="Floor-2" data-name="Floor">
      <ellipse cx="235.29" cy="307.07" rx="235.29" ry="135.85" style="fill: #f5f5f5;"/>
    </g>
    <g id="Shadow-2" data-name="Shadow">
      <ellipse cx="390.44" cy="335.15" rx="66.75" ry="38.54" style="fill: #e0e0e0;"/>
    </g>
    <g id="Shadow-3" data-name="Shadow">
      <polygon points="221.5 355.94 146.2 312.45 232.27 262.76 307.58 306.24 221.5 355.94" style="fill: #e0e0e0;"/>
    </g>
    <g id="Shadow-4" data-name="Shadow">
      <polygon points="16.46 342.49 113.58 398.56 195.04 351.54 97.93 295.47 16.46 342.49" style="fill: #e0e0e0;"/>
    </g>
    <g id="Plants-2" data-name="Plants">
      <path d="m304.12,275.29c-.14-2.53-.49-5.57-.89-9.08-1.53-13.36-3.62-31.65,1.92-49.19,3.37-10.67,11.49-23.32,24.17-26.83,2.81-.78,9.64-1.93,12.25,4.12.36.84.58,1.77.65,2.75.27,3.84-1.46,7.23-3.38,10.32-2.22,3.58-4.77,7-7.25,10.31-2.35,3.14-4.77,6.38-6.89,9.74-2.19,3.48-4.21,7.33-5.98,11.43l-.81-.35c1.79-4.14,3.82-8.03,6.04-11.55,2.14-3.39,4.57-6.65,6.93-9.8,2.46-3.3,5.01-6.7,7.21-10.25,1.84-2.97,3.5-6.21,3.25-9.8-.06-.88-.26-1.71-.58-2.46-2.34-5.42-8.61-4.33-11.21-3.62-12.34,3.41-20.27,15.79-23.57,26.24-5.48,17.36-3.4,35.54-1.88,48.82.4,3.53.75,6.58.9,9.13l-.88.05Z" style="fill: #5067dd;"/>
      <path d="m305.02,289.85c-.07,0-.13,0-.2-.02-.38-.07-.73-.34-.89-.69-.23-.51-.14-1.06-.02-1.54.19-.83.1-1.88.02-2.89-.05-.55-.09-1.11-.09-1.62v-6.19c.88-11.43,4.19-22.39,9.57-31.74,4.88-8.48,10.28-14.14,16.99-17.79,3.72-2.03,8.31-3.5,11.7-3.75,4.02-.3,7.65.66,10.22,2.69,3.05,2.41,4.42,6.54,3.26,9.82-.81,2.28-2.66,4.02-4.54,5.55-3.38,2.75-7.05,5.21-10.6,7.58-2.95,1.97-6,4.01-8.85,6.2-5.75,4.41-10.92,9.6-15.39,15.43-2.24,2.93-4.31,6.03-6.15,9.22-.89,1.55-1.74,3.14-2.53,4.74-.1.21-.21.42-.32.63-.3.58-.6,1.18-.82,1.77-.05.13-.1.4-.17.71-.21.96-.32,1.4-.53,1.61-.18.17-.41.26-.66.26Zm38.5-65.39c-.45,0-.9.02-1.36.05-3.27.24-7.73,1.67-11.34,3.64-6.56,3.57-11.85,9.12-16.65,17.46-5.31,9.23-8.58,20.06-9.45,31.33v6.15c0,.48.05,1.01.09,1.55.09,1.08.18,2.19-.04,3.16-.08.35-.15.71-.03.97.04.09.15.17.26.19.14-.12.28-.8.36-1.17.08-.35.15-.67.2-.82.23-.65.55-1.27.86-1.87.11-.21.21-.41.31-.62.8-1.62,1.66-3.23,2.56-4.79,1.86-3.23,3.95-6.36,6.21-9.32,4.51-5.89,9.74-11.13,15.55-15.59,2.88-2.21,5.94-4.26,8.9-6.24,3.54-2.37,7.19-4.81,10.54-7.54,1.78-1.45,3.54-3.08,4.27-5.16,1.03-2.93-.22-6.64-2.98-8.83-2.1-1.67-5-2.56-8.25-2.56Z" style="fill: #5067dd;"/>
      <path d="m304.27,281.26s-.07,0-.11-.01c-.24-.06-.38-.3-.32-.54,8.25-32.9,31.06-47.58,43.23-51.07.23-.07.48.07.55.3.07.23-.07.48-.3.55-12,3.44-34.47,17.92-42.62,50.44-.05.2-.23.33-.43.33Z" style="fill: #5067dd;"/>
      <path d="m304.23,254.33s-.02,0-.03,0c-.24-.02-.43-.23-.41-.47,2.62-35.53,25.86-55,28.5-57.1.19-.15.47-.12.62.07.15.19.12.47-.07.62-2.61,2.08-25.58,21.31-28.17,56.47-.02.23-.21.41-.44.41Z" style="fill: #5067dd;"/>
    </g>
    <g id="Bookshelf-2" data-name="Bookshelf">
      <g>
        <path d="m301.45,130.4l-55.6-32.06c-1.18-.68-2.25-.75-3.02-.3-.72.41-3.28,1.9-4,2.31-.78.44-1.26,1.4-1.26,2.77v152.16c0,2.73,1.91,6.04,4.28,7.4l55.6,32.06c1.18.68,2.25.75,3.02.3.72-.41,3.3-1.9,4.02-2.32.77-.45,1.24-1.4,1.24-2.76v-152.16c0-2.73-1.91-6.04-4.27-7.4Z" style="fill: #263238;"/>
        <g>
          <path d="m249.58,257.92l-4.01,2.31v12.66c0,.68.48,1.51,1.07,1.85l1.87,1.08c.59.34,1.55.34,2.14,0l1.87-1.08c.59-.34,1.25-1.14,1.47-1.78l3.61-10.41-8.02-4.63Z" style="fill: #263238;"/>
          <path d="m245.57,272.89c0,.68.48,1.51,1.07,1.85l1.87,1.08c.59.34,1.25.1,1.47-.55l3.61-10.41-8.02-4.63v12.66Z" style="fill: #37474f;"/>
        </g>
        <g>
          <path d="m289.68,281.02l-4.01,2.31v12.66c0,.68.48,1.51,1.07,1.85l1.87,1.08c.59.34,1.55.34,2.14,0l1.87-1.08c.59-.34,1.25-1.14,1.47-1.78l3.61-10.41-8.02-4.63Z" style="fill: #263238;"/>
          <path d="m285.67,295.99c0,.68.48,1.51,1.07,1.85l1.87,1.08c.59.34,1.25.1,1.47-.55l3.61-10.41-8.02-4.63v12.66Z" style="fill: #37474f;"/>
        </g>
        <path d="m242.11,100.74l55.6,32.06c2.36,1.36,4.27,4.68,4.27,7.4v152.16c0,1.36-.48,2.32-1.25,2.77-.77.45-1.84.38-3.02-.3l-55.6-32.06c-2.36-1.36-4.27-4.68-4.27-7.4V103.2c0-1.37.48-2.33,1.26-2.77.77-.44,1.84-.37,3.01.31Z" style="fill: #37474f;"/>
      </g>
      <g id="Bottom">
        <polygon points="161.37 308.79 221.52 343.51 305.71 294.9 301.7 292.59 241.56 257.86 161.37 304.16 161.37 308.79" style="fill: #455a64;"/>
        <polygon points="221.52 343.51 221.52 338.88 305.71 290.27 305.71 294.9 221.52 343.51" style="fill: #263238;"/>
      </g>
      <g>
        <path d="m221.9,336.77l-.62-.41c10.68-16.15,10.61-44.08,9.73-51.05-.07-.46-.12-.76-.13-.87l.73-.12c.04.22.08.49.12.8.78,4.94,5.19,31.84,10.41,39.96l-.62.4c-4.13-6.41-7.65-23.71-9.43-33.69.11,11.37-1.58,31.97-10.2,44.99Z" style="fill: #fafafa;"/>
        <path d="m257.01,312.11c-.91-.27-22.17-6.72-24.13-16.1l.72-.15c1.86,8.95,23.4,15.47,23.61,15.54l-.21.71Z" style="fill: #fafafa;"/>
        <path d="m235.52,308.28l-.54-2.3c-.31-1.31-1.33-1.53-1.76-1.56-.8-.07-1.55.31-1.79.89l-.68-.28c.36-.88,1.4-1.43,2.53-1.34.79.06,1.44.41,1.89.99.21-.86.61-1.93,1.41-2.38.53-.3,1.15-.28,1.82.06l-.33.66c-.44-.22-.81-.25-1.12-.07-.86.48-1.18,2.33-1.23,3l-.18,2.35Z" style="fill: #fafafa;"/>
        <path d="m237.65,315.94l-.66-2.08c-.75-2.35-1.98-3.7-3.48-3.79-1.18-.08-2.42.7-2.96,1.85l-.67-.31c.67-1.44,2.18-2.36,3.67-2.28.89.06,2.41.53,3.55,2.85.26-1.83.97-4.77,2.94-5.99,1.23-.77,2.74-.75,4.51.05l-.31.67c-1.52-.69-2.8-.72-3.81-.09-2.56,1.6-2.73,6.89-2.73,6.95l-.06,2.19Z" style="fill: #fafafa;"/>
        <path d="m228.61,321.02l-.66-.34c1.48-2.85,4.72-4.91,7.54-4.75,1.32.07,2.39.6,3.11,1.52.44-2.72,2.24-5.46,4.73-7.08,2.71-1.77,5.9-2.01,8.98-.67l-.29.68c-2.84-1.23-5.78-1.02-8.28.61-2.63,1.71-4.48,4.87-4.5,7.68v1.9s-.71-1.76-.71-1.76c-.66-1.67-2.03-2.09-3.07-2.14-2.53-.13-5.49,1.74-6.85,4.36Z" style="fill: #fafafa;"/>
        <path d="m224.57,332.06l-.65-.36c.9-1.64,5.68-9.88,11.36-11.37,1.71-.45,3.32-.22,4.78.69l-.39.63c-1.29-.79-2.7-1-4.21-.6-4.17,1.1-8.48,6.62-10.9,11.01Z" style="fill: #fafafa;"/>
      </g>
      <g>
        <polygon points="297.69 243.97 297.7 248.6 221.51 292.59 161.37 257.86 161.37 253.23 237.55 209.25 297.69 243.97" style="fill: #263238;"/>
        <polygon points="297.69 243.97 221.52 287.96 161.37 253.23 237.55 209.25 297.69 243.97" style="fill: #455a64;"/>
      </g>
      <g>
        <polygon points="297.69 193.05 297.7 197.67 221.51 241.66 161.37 206.93 161.37 202.31 237.55 158.32 297.69 193.05" style="fill: #263238;"/>
        <polygon points="297.69 193.05 221.52 237.03 161.37 202.31 237.55 158.32 297.69 193.05" style="fill: #455a64;"/>
      </g>
      <g id="Side">
        <path d="m221.26,176.64l-55.6-32.06c-1.18-.68-2.25-.75-3.02-.3-.72.41-3.28,1.9-4,2.31-.78.44-1.26,1.4-1.26,2.77v152.16c0,2.73,1.91,6.04,4.28,7.4l55.6,32.06c1.18.68,2.25.75,3.02.3.72-.41,3.3-1.9,4.02-2.32.77-.45,1.24-1.4,1.24-2.76v-152.16c0-2.73-1.91-6.04-4.27-7.4Z" style="fill: #263238;"/>
        <g style="opacity: .2;">
          <polygon points="221.51 200 225.53 197.68 225.53 183.78 221.5 186.1 221.51 200"/>
        </g>
        <g style="opacity: .2;">
          <polygon points="301.72 153.7 305.73 151.39 305.73 137.49 301.7 139.81 301.72 153.7"/>
        </g>
        <g>
          <path d="m169.39,304.16l-4.01,2.31v12.66c0,.68.48,1.51,1.07,1.85l1.87,1.08c.59.34,1.55.34,2.14,0l1.87-1.08c.59-.34,1.25-1.14,1.47-1.78l3.61-10.41-8.02-4.63Z" style="fill: #263238;"/>
          <path d="m165.38,319.13c0,.68.48,1.51,1.07,1.85l1.87,1.08c.59.34,1.25.1,1.47-.55l3.61-10.41-8.02-4.63v12.66Z" style="fill: #37474f;"/>
        </g>
        <g>
          <path d="m209.49,327.26l-4.01,2.31v12.66c0,.68.48,1.51,1.07,1.85l1.87,1.08c.59.34,1.55.34,2.14,0l1.87-1.08c.59-.34,1.25-1.14,1.47-1.78l3.61-10.41-8.02-4.63Z" style="fill: #263238;"/>
          <path d="m205.48,342.23c0,.68.48,1.51,1.07,1.85l1.87,1.08c.59.34,1.25.1,1.47-.55l3.61-10.41-8.02-4.63v12.66Z" style="fill: #37474f;"/>
        </g>
        <path d="m161.64,146.91l55.6,32.06c2.36,1.36,4.27,4.68,4.27,7.4v152.16c0,1.36,0,4.98,0,4.98,0,0-3.09-1.83-4.28-2.51l-55.6-32.06c-2.36-1.36-4.27-4.68-4.27-7.4v-152.16c0-1.37.48-2.33,1.26-2.77.77-.44,1.84-.37,3.01.31Z" style="fill: #37474f;"/>
        <g style="opacity: .2;">
          <path d="m217.24,178.96l-55.6-32.06c-1.17-.68-2.24-.75-3.01-.31-.78.44-1.26,1.4-1.26,2.77v13.58s64.15,37.04,64.15,37.04v-13.63c0-2.73-1.91-6.04-4.27-7.4Z"/>
        </g>
      </g>
      <g>
        <path d="m293.69,193.42c-.2,0-.37-.17-.37-.37v-45.66s-43.55,25.14-43.55,25.14c-.18.1-.4.04-.51-.14-.1-.18-.04-.4.13-.51l44.1-25.46c.12-.07.26-.07.37,0,.11.07.18.19.18.32v46.3c0,.2-.17.37-.37.37Z" style="fill: #fafafa;"/>
        <path d="m285.67,181.84s-.06,0-.08,0c-.2-.05-.32-.25-.28-.44l7.46-32.31-14.8,25.63c-.1.18-.33.24-.51.14-.18-.1-.24-.33-.13-.51l16.04-27.78c.09-.16.29-.23.46-.16.17.07.27.25.22.43l-8.02,34.72c-.04.17-.19.29-.36.29Z" style="fill: #fafafa;"/>
        <path d="m269.63,170.27c-.1,0-.19-.04-.27-.11-.14-.15-.14-.38,0-.52l24.06-23.15c.15-.14.38-.14.52,0,.14.15.14.38,0,.52l-24.06,23.15c-.07.07-.16.1-.26.1Z" style="fill: #fafafa;"/>
        <path d="m293.69,186.03h0c-.2,0-.37-.17-.37-.37,0-6.06-6.76-6.47-7.05-6.48-.11,0-.21-.06-.28-.15-.07-.09-.09-.2-.07-.31.45-1.94-.08-4.9-2.31-6.8-.95-.81-1.87-1.17-2.66-1.04-.63.11-1.07.51-1.27.86-.09.15-.26.22-.43.17-.17-.05-.27-.21-.26-.38.02-.23.41-5.61-4.33-6.15-.12-.01-.23-.09-.29-.2-.06-.11-.06-.24,0-.35.02-.04,2.1-3.92,1.29-5.85-.19-.47-.54-.77-1.07-.92-.2-.06-.31-.26-.25-.46.06-.2.27-.3.46-.25.74.22,1.27.67,1.55,1.35.77,1.84-.53,4.87-1.09,6.03,3.68.71,4.35,4.18,4.46,5.9.3-.22.67-.39,1.1-.47.71-.12,1.85,0,3.27,1.21,2.31,1.97,2.97,4.98,2.63,7.12,1.62.2,7.34,1.34,7.33,7.18,0,.2-.17.37-.37.37Z" style="fill: #fafafa;"/>
        <path d="m293.68,176.06c-.19,0-.35-.15-.37-.34-.17-2.13-1.39-4.86-2.95-5.55-.64-.28-1.25-.18-1.87.3-.12.09-.27.1-.41.03-.13-.07-.21-.21-.19-.36,0-.04.33-3.75-1.36-5.3-.66-.6-1.56-.8-2.68-.59-.13.02-.26-.02-.35-.12-.09-.1-.11-.24-.07-.36.33-.93,1.01-3.55.11-4.47-.42-.43-1.19-.47-2.3-.11-.16.05-.33,0-.42-.14-.09-.13-.09-.31.01-.44.62-.78,2.14-3.06,1.76-4.15-.1-.28-.34-.47-.74-.56-.2-.05-.32-.25-.27-.45.05-.2.24-.32.45-.27.81.19,1.14.67,1.26,1.04.41,1.19-.59,2.98-1.29,4.03.9-.13,1.59.05,2.06.54,1.1,1.13.57,3.55.24,4.67,1.09-.08,2.01.2,2.72.85,1.49,1.36,1.65,3.95,1.63,5.21.65-.3,1.33-.3,1.99,0,1.88.83,3.2,3.79,3.39,6.17.02.2-.14.38-.34.4,0,0-.02,0-.03,0Z" style="fill: #fafafa;"/>
      </g>
      <g id="Top">
        <path d="m315.23,130.55c0-.89-.58-1.79-1.76-2.47l-59.61-34.42c-2.36-1.36-6.19-1.36-8.55,0l-91.69,52.94c-1.18.68-1.77,1.58-1.76,2.47,0,.83,0,3.8,0,4.63,0,.89.58,1.79,1.76,2.47l59.61,34.42c2.36,1.36,6.19,1.36,8.55,0l91.69-52.94c1.18-.68,1.77-1.58,1.76-2.47,0-.83,0-3.8,0-4.63Z" style="fill: #37474f;"/>
        <path d="m213.23,185.95l-59.61-34.42c-2.36-1.36-2.36-3.57,0-4.94l91.69-52.94c2.36-1.36,6.19-1.36,8.55,0l59.61,34.42c2.36,1.36,2.36,3.57,0,4.94l-91.69,52.94c-2.36,1.36-6.19,1.36-8.55,0Z" style="fill: #455a64;"/>
      </g>
      <g id="Shadows">
        <g style="opacity: .1;">
          <polygon points="301.7 144.43 273.64 179.16 225.53 206.94 225.52 188.42 301.7 144.43"/>
        </g>
        <g style="opacity: .1;">
          <polygon points="297.7 197.67 273.64 230.08 225.53 257.87 225.53 239.34 297.7 197.67"/>
        </g>
        <g style="opacity: .1;">
          <polygon points="297.7 248.6 273.64 281.01 225.53 308.8 225.53 290.27 297.7 248.6"/>
        </g>
      </g>
    </g>
    <g id="Box-2" data-name="Box">
      <g>
        <polygon points="187.33 349.75 113.57 392.34 30.51 344.28 104.27 301.69 187.33 349.75" style="fill: #5067dd;"/>
        <g style="opacity: .5;">
          <polygon points="187.33 349.75 113.57 392.34 30.51 344.28 104.27 301.69 187.33 349.75"/>
        </g>
        <polygon points="104.27 243.96 104.27 301.69 30.51 344.28 30.51 286.55 104.27 243.96" style="fill: #5067dd;"/>
        <g style="opacity: .23;">
          <polygon points="104.27 243.96 104.27 301.69 30.51 344.28 30.51 286.55 104.27 243.96"/>
        </g>
        <polygon points="113.57 334.61 113.57 392.34 30.51 344.28 30.51 286.55 113.57 334.61" style="fill: #5067dd;"/>
        <g style="opacity: .38;">
          <polygon points="113.57 334.61 113.57 392.34 30.51 344.28 30.51 286.55 113.57 334.61"/>
        </g>
        <polygon points="187.33 292.02 187.33 349.75 104.27 301.69 104.27 243.96 187.33 292.02" style="fill: #5067dd;"/>
        <g style="opacity: .4;">
          <polygon points="187.33 292.02 187.33 349.75 104.27 301.69 104.27 243.96 187.33 292.02"/>
        </g>
        <polygon points="187.33 349.75 187.33 292.02 113.57 334.61 113.57 392.34 187.33 349.75" style="fill: #5067dd;"/>
        <g style="opacity: .23;">
          <polygon points="187.33 349.75 187.33 292.02 113.57 334.61 113.57 392.34 187.33 349.75"/>
        </g>
        <polygon points="104.27 243.96 104.38 212 187.23 260.13 187.33 292.02 104.27 243.96" style="fill: #5067dd;"/>
        <g style="opacity: .2;">
          <polygon points="104.27 243.96 104.38 212 187.23 260.13 187.33 292.02 104.27 243.96"/>
        </g>
        <polygon points="113.57 334.61 120.49 306.65 193.58 264.45 187.33 292.02 113.57 334.61" style="fill: #5067dd;"/>
        <g style="opacity: .3;">
          <polygon points="113.57 334.61 120.49 306.65 193.58 264.45 187.33 292.02 113.57 334.61"/>
        </g>
        <polygon points="30.51 286.55 21.71 257.55 95.47 214.97 104.27 243.96 30.51 286.55" style="fill: #5067dd;"/>
        <g style="opacity: .1;">
          <polygon points="30.51 286.55 21.71 257.55 95.47 214.97 104.27 243.96 30.51 286.55"/>
        </g>
        <polygon points="30.51 286.55 13.16 262.58 96.23 310.64 113.57 334.61 30.51 286.55" style="fill: #5067dd;"/>
        <g style="opacity: .45;">
          <polygon points="30.51 286.55 13.16 262.58 96.23 310.64 113.57 334.61 30.51 286.55"/>
        </g>
      </g>
      <g style="opacity: .7;">
        <g>
          <path d="m135.29,375.17c-.25,0-.45-.2-.45-.45v-10.16c0-.25.2-.45.45-.45s.45.2.45.45v10.16c0,.25-.2.45-.45.45Z" style="fill: #fff;"/>
          <path d="m133.96,368.08c-.06,0-.12-.01-.18-.04-.23-.1-.34-.37-.24-.6l1.61-3.73,1.8,2.08c.16.19.14.48-.05.64-.19.16-.48.14-.64-.05l-.86-.99-1.04,2.4c-.07.17-.24.27-.42.27Z" style="fill: #fff;"/>
        </g>
        <g>
          <path d="m139.48,372.78c-.25,0-.45-.2-.45-.45v-10.16c0-.25.2-.45.45-.45s.45.2.45.45v10.16c0,.25-.2.45-.45.45Z" style="fill: #fff;"/>
          <path d="m138.16,365.69c-.06,0-.12-.01-.18-.04-.23-.1-.34-.37-.24-.6l1.61-3.72,1.8,2.08c.16.19.14.48-.05.64-.19.16-.47.14-.64-.04l-.86-.99-1.04,2.4c-.07.17-.24.27-.42.27Z" style="fill: #fff;"/>
        </g>
      </g>
      <g style="opacity: .7;">
        <path d="m123.2,382.06c-.18,0-.35-.04-.49-.13-.35-.2-.54-.59-.54-1.09v-1.24c0-.25.2-.45.45-.45s.45.2.45.45v1.24c0,.19.05.28.09.3.03.02.14.01.3-.08.4-.23.84-1.13.84-2.05v-5.2c0-.25.2-.45.45-.45s.45.2.45.45v5.2c0,1.18-.55,2.4-1.29,2.83-.24.14-.48.21-.71.21Z" style="fill: #fff;"/>
        <path d="m118.43,377.87v-.78c0-3.69,2.6-8.2,5.8-10.04,1.64-.94,3.2-1.08,4.39-.39,1.2.69,1.86,2.11,1.86,4v.26l-12.05,6.96Zm8.51-10.75c-.68,0-1.45.24-2.26.7-2.72,1.57-4.97,5.22-5.3,8.45l10.19-5.88c-.05-1.42-.55-2.46-1.4-2.96-.36-.21-.77-.31-1.23-.31Z" style="fill: #fff;"/>
      </g>
      <g style="opacity: .7;">
        <polygon points="13.16 262.58 96.23 310.64 113.57 334.61 95.3 311.49 13.16 262.58" style="fill: #fff;"/>
      </g>
      <g style="opacity: .7;">
        <polygon points="187.33 292.02 113.57 334.61 113.57 392.34 114.95 335.77 187.33 292.02" style="fill: #fff;"/>
      </g>
    </g>
    <g id="Moth-2" data-name="Moth">
      <path d="m79.09,268.93c7.61-1.1,14.56-5.98,18.97-12.17,2.05-2.88,3.61-6.11,4.5-9.54.81-3.15,1.27-6.68.46-9.88-1.38-5.48-6.46-8.73-11.83-9.42-2.71-.35-5.51-.09-8.1.8-2.75.95-5,2.68-6.7,5.05-.88,1.23-1.8,2.75-1.85,4.31-.04,1.36.94,2.33,2.24,2.55,1.57.27,3.23-.4,4.58-1.16,1.66-.93,3.08-2.15,4.27-3.64,2.42-3.04,4.49-6.75,5.54-10.5.91-3.25.71-6.79.02-10.06-.71-3.34-2.09-6.75-4.54-9.2-2.56-2.57-6.21-3.84-9.73-4.3-3.57-.47-7.33-.15-10.75,1.03-1.47.51-2.99,1.19-4.13,2.25-.86.8-1.84,2.13-1.49,3.42.39,1.44,2.25,1.88,3.54,1.71,1.88-.24,3.68-1.41,5.01-2.71,1.47-1.43,2.79-3.18,3.77-4.99.72-1.33,1.16-2.81,1.13-4.34-.13-6.35-7.14-10.45-12.63-11.6-1.49-.31-2.99-.41-4.51-.3-.51.04-.2.84.21.81,2.88-.22,5.86.65,8.41,1.93,2.48,1.24,4.85,3.07,6.21,5.53,1.37,2.48,1.22,5.33-.23,7.74-.99,1.65-2.19,3.32-3.62,4.62-1.19,1.08-2.98,2.33-4.68,2.21-.5-.04-1.13-.27-1.32-.83-.22-.65.27-1.42.6-1.82.81-1.01,2.05-1.61,3.23-2.14,2.93-1.3,6.31-1.72,9.49-1.56,3.27.17,6.68,1.01,9.34,3.01,2.5,1.87,3.97,4.78,4.86,7.71.92,3.03,1.3,6.35.88,9.5-.44,3.21-1.97,6.28-3.63,9.02-1.85,3.05-4.17,5.97-7.65,7.2-.86.3-2.66.76-3-.5-.34-1.23.64-2.78,1.28-3.75,1.44-2.2,3.38-3.91,5.82-4.91,2.29-.94,4.83-1.29,7.29-1.1,4.71.36,9.49,2.82,11.13,7.5.96,2.74.77,5.79.25,8.6-.57,3.11-1.72,6.11-3.31,8.84-3.4,5.86-8.71,10.26-14.89,12.94-1.48.64-3.02,1.18-4.55,1.69-.16.05-.09.45.09.43h0Z" style="fill: #e0e0e0;"/>
      <g>
        <path d="m47.3,182.11c-4.05-.28-9.51,2.86-7.55,5.16,1.96,2.3,7.17-1.42,7.17-1.42,0,0-.49,4.65,1.21,5.18,1.7.53,3.95-3.9,2.3-6.74,0,0,2.56,1.13,4.97-.65s-.15-3.45-3.56-3.16c0,0,2.44-7.98-2.49-6.47-2.44.74-3.31,3.64-2.05,8.1Z" style="fill: #5067dd;"/>
        <g style="opacity: .65;">
          <path d="m47.3,182.11c-4.05-.28-9.51,2.86-7.55,5.16,1.96,2.3,7.17-1.42,7.17-1.42,0,0-.49,4.65,1.21,5.18,1.7.53,3.95-3.9,2.3-6.74,0,0,2.56,1.13,4.97-.65s-.15-3.45-3.56-3.16c0,0,2.44-7.98-2.49-6.47-2.44.74-3.31,3.64-2.05,8.1Z" style="fill: #fff;"/>
        </g>
        <path d="m51.02,183.81c-.22-.22-.46-.42-.7-.61-.35-.27-.72-.53-1.07-.79-.34-.25-.7-.47-1.07-.67-.21-.12-.43-.23-.66-.32-.35-.15-.65-.21-1.02-.16-.35.04-.67.45-.4.78.31.4.7.48,1.05.66.18.09.36.19.54.3.37.22.7.47,1.04.72.34.25.69.49,1.03.74.53.41,1.07.81,1.71,1.04.06.02.13,0,.18-.03.42-.41-.32-1.35-.62-1.65Z" style="fill: #455a64;"/>
      </g>
    </g>
    <g id="Character-2" data-name="Character">
      <path d="m369.84,72.1c-4.38,5.88-10.22,38.21-12.43,48.57-10.63-.31-24.85-.8-30.24-1.37-5.97-.63-18.81-1.85-25.09-1.03-15.61,2.04-14.99,12.26-14.63,14.93.42,3.07,2.6,4.46,10.96,2.56,1.87-.43,3.8-.64,5.72-.67.82-.02,2.52-.4,3.16.29.96,1.04-1.88,2.67-2.61,3.14-1.11.72-2.27,1.63-2.5,2.93-.09.48,0,1.06.42,1.32.36.23.84.15,1.26.05,3.83-.9,7.54-2.32,11-4.19,1.34-.73,2.66-1.53,4.12-1.99,2.17-.7,4.4-.28,6.59-.28,4.69,0,29.47,2.45,40.49,3.57,7.63.78,8.44-6.76,11.07-14.38,3.27-9.48,10.92-59.25,10.92-59.25-7.72-1.1-13.02-1.17-18.22,5.81Z" style="fill: #ffa8a7;"/>
      <path d="m388.17,65.53c-3.69-.68-11.99-1.71-16.51,3.34-4.53,5.05-5.59,10.36-7.58,17.99-1.99,7.64-5.49,21.36-5.49,21.36,0,0,5.83,8.37,24.08,5.99l5.5-48.69Z" style="fill: #37474f;"/>
      <g>
        <polygon points="434 329.95 421.17 329.96 417.48 302.11 433.67 301.47 434 329.95" style="fill: #ffa8a7;"/>
        <path d="m391.41,316.04c-2.19,3.78-9.19,3.47-15.04,2.13l-.67-27.38,17.16-.67-1.45,25.92Z" style="fill: #ffa8a7;"/>
        <path d="m433.13,153.97c.46,11.85-1.1,81.92-1.1,81.92.42,3.4,3.94,9.33,4.68,21.6,1.07,17.79-2.57,55.85-2.57,55.85,0,0-7.35,3.84-15.27.9,0,0-8.06-55.04-10.98-72.57-2.54-15.31-5.81-56.34-5.81-56.34l-6.33,52.6s1.77,8.32,1.43,18.89c-.26,8.17-4.92,47.89-4.92,47.89,0,0-7.82,2.93-16.42.4,0,0-3.83-61.64-4.26-69.12-.5-8.52-.16-83.73-.16-83.73l61.69,1.71Z" style="fill: #5067dd;"/>
        <g style="opacity: .2;">
          <path d="m402.09,185.32s-11.21-3.18-18.85-10c0,0,3.58,6.11,13.72,11.53l-.58,45.91,5.71-47.44Z"/>
        </g>
        <g>
          <path d="m406.51,353.18c-.42.42-.18,3.18.33,3.91.54.78,3.56,3.16,8.87,3.33,5.07.16,9.55-.69,12.45-2.7,2.89-2,4.25-4.13,4.41-7.02.17-2.89-.26-5.65,1.02-7.92,1.19-2.1,3.12-4.48,3.51-5.61.86-2.45-.2-5.86-.2-5.86l-30.39,21.87Z" style="fill: #263238;"/>
          <path d="m419.35,327.51c0,1.12-.15,2.15-.46,3.23-.65,2.26-1.68,4.41-2.85,6.45-.6,1.05-1.24,2.09-1.99,3.06-1.46,1.88-3.3,3.45-4.85,5.25-1.55,1.81-2.84,3.98-2.88,6.33-.06,3.97,4.3,5.15,7.63,5.61,3.56.49,7.33.15,10.74-.96,3.8-1.24,6.45-4.33,6.94-8.18.14-1.11.03-2.23.11-3.34.2-2.54,1.42-4.9,2.81-7.06.81-1.25,1.7-2.48,2.22-3.87.94-2.49,0-5.22-.76-7.64-.65-2.09-1.39-4.45-2.12-4.22,0,1.11.04,1.21-.71,1.98-.96.98-.94,2.39-1.96,3.26.44-1.3.45-1.85.63-2.85.05-.3-.05-.89-.27-1.11-.29-.29-.77-.46-1.24-.6-1.58-.47-3.21-.77-4.86-.91-1.5-.13-3.23-.24-4.7.15-.45.12-.89.36-1.15.73-.28.39-.32.73-.37,1.37-.05.64.07,2.27.08,3.32Z" style="fill: #455a64;"/>
          <path d="m415.55,338.04c1.43-1.16,4.74-1.31,6.56-1.19,2.27.15,4.14.88,5.21,1.6.47.32,1.12.24,1.51-.18h0c.47-.5.39-1.29-.18-1.68-1.14-.77-3.18-1.83-5.87-1.92-4.46-.14-5.74.67-5.74.67,0,0-1.98,1.39-1.49,2.68Z" style="fill: #f5f5f5;"/>
          <path d="m412.31,342.24c1.81-1.17,5.46-1.15,7.27-1.03,2.27.15,4,.98,5.07,1.71.47.32,1.12.24,1.51-.18h0c.47-.5.39-1.29-.18-1.68-1.14-.77-3.31-2-6-2.08-4.46-.14-5.59.82-5.59.82,0,0-1.85.8-2.09,2.45Z" style="fill: #f5f5f5;"/>
          <path d="m424.38,330.36c-3.09-.2-4.38.2-5.58.69-.77.47-1.23,1.73-.72,2.02.97-.59,2.74-.89,4.93-.88,1.47,0,3.34.53,4.86,1.13.39.15.85.37,1.25.58.54.27,1.21.04,1.45-.51h0c.2-.47.02-1.01-.44-1.26-1.1-.61-3.27-1.62-5.76-1.78Z" style="fill: #f5f5f5;"/>
        </g>
        <g>
          <path d="m347.09,333.12c-.46.86-.42,2.5.03,3.57.45,1.07,5.74,4.39,13.1,4.24,7.36-.15,12.54-2.86,15.42-4.58,2.89-1.72,5.81-1.93,9.46-1.96,3.64-.04,8.5-1.62,9.38-3.28.88-1.66.1-4.63.1-4.63l-47.49,6.65Z" style="fill: #263238;"/>
          <path d="m377.78,311.62c-.19-.05-.38-.1-.57-.15-.32-.08-.64-.16-.97-.1-.36.07-.67.31-.93.57-.83.82-1.36,1.89-2.01,2.85-1.66,2.44-4.98,4.36-8.6,6.09-2.46,1.17-4.85,2.06-7.38,3.06-2.58,1.02-5.96,1.55-8,2.79-2.97,1.8-3.57,6.66-.39,8.74,2.75,1.8,10.11,3.95,18.03,2.11,4.31-1,9.25-5.32,14.85-5.5,3.56-.11,10.33-.79,12.74-3.38.9-1.16-.05-5-.82-8.32-.84-3.62-.46-9.04-2.07-8.98l-.1,1.81c-.15.54-1.43,1.07-1.82,1.49-.48.51-.96,1.01-1.44,1.52-.63.66-1.28,1.35-2.12,1.72-1.44.64-3.1.26-4.63-.13-.07-.02.77-2.78.85-3.05.07-.22.14-.45.08-.67-.06-.22-.25-.39-.43-.53-1.32-1.02-2.72-1.53-4.27-1.94Z" style="fill: #455a64;"/>
          <path d="m368.1,319.11s.57-1.34,2.71-1.63c1.63-.22,4.43,1.1,6.13,2.65.7.63.55,1.76-.3,2.18h0c-.5.25-1.1.15-1.5-.24-1.11-1.07-3.64-3.03-7.04-2.96Z" style="fill: #f5f5f5;"/>
          <path d="m362.96,321.68s1.12-1.58,3.18-1.45c0,0,4.21.32,6.71,2.88.64.65.54,1.71-.28,2.11h0c-.49.24-1.06.14-1.45-.24-1.13-1.11-3.38-3.43-8.16-3.3Z" style="fill: #f5f5f5;"/>
          <path d="m357.31,323.94s1.23-1.42,3.3-1.29c0,0,3.92.33,6.42,2.89.64.65.54,1.71-.28,2.11h0c-.49.24-1.06.14-1.45-.24-1.13-1.11-3.2-3.6-7.99-3.47Z" style="fill: #f5f5f5;"/>
        </g>
      </g>
      <path d="m409.56,65.75c4.72.54,10.31.83,14.81,1.42,5.81.76,10.34,6.77,11.76,16.07,1.56,10.25-4.97,39.6-4.97,39.6l2.09,34.62c-8.52,6.27-44.75,9.56-62.82-3.48,0,0,.42-58.92,1.83-67.96,1.94-12.44,4.98-20.18,19.01-21.07l18.27.8Z" style="fill: #455a64;"/>
      <g>
        <path d="m441.82,140.75c-1.53,2.56-3.07,5.12-4.65,7.65-.58.94-1.17,1.87-1.79,2.79-.22.33-.84.99-1.15,1.21-.76.53-2.34.19-3.26.22-4.52.15-9.03.48-13.52.99-.74.08-1.59.23-1.99.86-.46.72-.06,1.74.64,2.24s1.58.62,2.43.72c1.3.16,2.6.31,3.9.47.55.07,1.13.14,1.56.49,1.42,1.15-1.29,2.53-2.1,3.09-1.63,1.12-3.37,2.11-5.19,2.87-8.13,3.43-9.12,5.91-7.62,8.72,1.3,2.45,6.92,11.36,21.2,3.69,5.75-3.09,14.51-12.85,18.49-17.57,5.75-6.81,15.45-22.02,15.45-22.02,5.52-7.58,6.24-10.69,6.36-13.85.12-3.16-17.01-27.38-22.82-35.88s-8.59-18.86-23.4-20.28c0,0-5.63,17.88,3.7,29.45l21.57,30.09s-5.71,10.53-7.82,14.04Z" style="fill: #ffa8a7;"/>
        <path d="m457.47,99.02c-2.77-4-5.66-8.12-8.45-12.2-11.74-17.15-10.76-20.29-27.7-20.53-1.5,2.31-2.39,12.2-.13,22.14,1.9,8.35,8.97,14.24,8.97,14.24l8.49,11.49s5.19-.16,11.41-4.72c6.22-4.56,7.41-10.42,7.41-10.42Z" style="fill: #37474f;"/>
      </g>
      <g>
        <g>
          <path d="m420.72,20.69c-3.2-4.47-7.85-3.7-7.85-3.7l-.87,21.47-1.42,7.93.25,8.82s2.39-.12,3.83-2.91c1.31-2.54,4.96-14.82,4.96-14.82l-.02.02c3.35-10.08,2.65-14.65,1.11-16.8Z" style="fill: #263238;"/>
          <path d="m410.99,38.55c.42-1.34.83-2.1,2.07-3.42,1.23-1.31,6.13-2.75,8.37,1.41,2.28,4.24-1.53,9.65-4.43,11.33-3.72,2.16-5.89-.78-5.89-.78l.09,19.77h0c-1.73,3.98-9.54,7.56-14.18,6.97-3.7-.47-7.12-3.39-3.81-7.63l-.26-5.63s-4.95,1-7.4.75c-4.08-.42-6.78-3.49-8.23-7.81-2.32-6.94-3.35-12.58-2.36-26.5,1.08-15.26,18.71-16.29,28.53-10.77,9.82,5.52,7.51,22.3,7.51,22.3Z" style="fill: #ffa8a7;"/>
          <path d="m369.33,11.2c-.45-3.33.71-6.9,4.19-8.08,2.63-.89,5.33-.84,7.74,1.29.86-2.35,3.13-4.11,5.62-4.37,2.49-.26,5.07.99,6.41,3.11,1.05-1.48,2.29-2.38,4.02-2.79,2.02-.49,4.51.02,5.94,1.08,1.43,1.05,3.09,3.05,2.67,5.53,2.81-1.12,5.74-.19,7.83,2.3,1.25,1.49,1.93,3.42,1.99,5.36.03.94-.03,2.1-.42,2.97-.41.91-1.23,1.51-1.46,2.54-.22.97-.67,1.86-.54,2.84.23,1.68.6,3.35.82,5.04.21,1.63.4,3.28.41,4.92,0,.79-.56,1.34-1.21,1.93-1.07.95-1.31,1.44-2.1,3.05-.35.72-.69,2.5-1.39,2.98-2.13,1.49-2.36-3.34-2.47-4.26-.1-.92-.13-3.34.04-6.41-.68-.04-3.5-.09-5.67-2.61-.71-.82-1.26-2.07-1.41-3.14-.09-.68-.2-1.28-.17-1.96-1.38,2.3-4.62,3.24-6.92,3.03-3.86-.35-5.19-2-5.81-3.21-.28,1.08-.75,2.46-1.53,3.26-.99,1.01-2.3,1.62-3.46,2.02-2.16.73-4.73-.19-6.32-1.82-1.57,2.25-5.55,1.25-6.43.61-2.02-1.45-2.65-3.17-2.87-5.65-.22-2.48.78-5.28,3.51-6.26-.52-.99-.87-2.13-1.03-3.3Z" style="fill: #263238;"/>
          <path d="m392.93,60.57s8.94-2.27,12.02-4.1c2.06-1.23,3.7-3.26,4.15-4.54,0,0-.46,2.71-2.23,5.22-2.16,3.07-13.82,5.82-13.82,5.82l-.12-2.4Z" style="fill: #f28f8f;"/>
        </g>
        <g>
          <path d="m393.43,37.89c.06,1.11.97,1.97,2.04,1.91,1.07-.06,1.89-1,1.84-2.11-.06-1.11-.97-1.97-2.04-1.91-1.07.06-1.89,1-1.84,2.11Z" style="fill: #263238;"/>
          <path d="m390.44,52.36c.07,1.43,1.25,2.53,2.62,2.46,1.38-.07,2.44-1.29,2.37-2.72-.07-1.43-1.24-2.53-2.62-2.46-1.38.07-2.44,1.29-2.37,2.72Z" style="fill: #f28f8f;"/>
          <path d="m395.04,31.23l4.12,2.01c.53-1.18.04-2.59-1.09-3.15-1.14-.56-2.49-.05-3.03,1.13Z" style="fill: #263238;"/>
          <path d="m377.12,32.96l3.52-3c-.8-1.01-2.23-1.16-3.2-.33-.97.83-1.11,2.32-.31,3.33Z" style="fill: #263238;"/>
          <path d="m378.17,37.5c.05,1.08.94,1.9,1.97,1.85,1.03-.05,1.83-.97,1.78-2.05-.05-1.08-.94-1.9-1.97-1.85-1.04.05-1.83.97-1.78,2.05Z" style="fill: #263238;"/>
          <polygon points="387.45 35.28 387.39 47.11 381.13 45.32 387.45 35.28" style="fill: #f28f8f;"/>
        </g>
      </g>
      <g>
        <path d="m371.74,51.83c.11-.03.22-.09.29-.2.14-.21.08-.5-.13-.64l-5.44-3.62c-.21-.14-.5-.08-.64.13-.14.21-.08.5.13.64l5.44,3.62c.11.07.24.09.36.07Z" style="fill: #e0e0e0;"/>
        <path d="m371.16,54.17c.17-.04.31-.17.35-.35.06-.25-.1-.5-.35-.56l-6.36-1.48c-.25-.06-.5.1-.56.35-.06.25.1.5.35.56l6.36,1.48c.07.02.14.02.21,0Z" style="fill: #e0e0e0;"/>
        <path d="m365.25,58.4s.04-.01.06-.02l6.13-2.24c.24-.09.37-.35.28-.6-.09-.24-.37-.36-.6-.28l-6.13,2.24c-.24.09-.37.35-.28.6.08.22.31.34.54.29Z" style="fill: #e0e0e0;"/>
      </g>
      <g>
        <path d="m313.39,106.37c.16.32.44.59.81.72.75.27,1.58-.12,1.85-.87l4.57-11.25c.27-.75-.12-1.58-.87-1.85s-1.58.12-1.85.87l-4.57,11.25c-.14.39-.1.79.07,1.13Z" style="fill: #e0e0e0;"/>
        <path d="m305.88,106.35c.24.48.74.81,1.32.8.8-.01,1.44-.67,1.43-1.47l-.14-14.03c0-.79-.67-1.44-1.47-1.43-.8.01-1.44.67-1.43,1.47l.14,14.03c0,.22.06.43.15.62Z" style="fill: #e0e0e0;"/>
        <path d="m293.15,98.52c.03.06.06.11.1.17l6.89,10c.45.66,1.35.84,2.01.39.66-.45.81-1.4.39-2.01l-6.89-10c-.45-.66-1.35-.84-2.01-.39-.61.41-.81,1.2-.49,1.84Z" style="fill: #e0e0e0;"/>
      </g>
    </g>
  </g>
  <g>
    <path d="m112.75,461.34l-19.19,2.15-23.76-28.51,3.44,30.78-19.19,2.15-6.84-61.21,19.19-2.15,23.82,29.03-3.5-31.3,19.19-2.15,6.84,61.21Z" style="fill: #5067dd;"/>
    <path d="m131.07,456.85c-4.15-1.58-7.54-4.13-10.18-7.66-2.64-3.53-4.24-7.83-4.81-12.9-.57-5.07.05-9.62,1.84-13.64,1.8-4.02,4.54-7.26,8.24-9.72,3.69-2.46,7.99-3.96,12.89-4.5,4.9-.55,9.42-.03,13.57,1.55,4.14,1.58,7.54,4.13,10.18,7.66,2.64,3.53,4.25,7.83,4.81,12.9.57,5.07-.05,9.62-1.84,13.64-1.8,4.02-4.54,7.26-8.24,9.72-3.7,2.46-7.99,3.96-12.89,4.5-4.9.55-9.42.03-13.57-1.55Zm15.97-17.67c1.05-1.55,1.42-3.7,1.12-6.47-.31-2.77-1.15-4.79-2.52-6.06-1.37-1.28-2.95-1.82-4.73-1.62-1.79.2-3.21,1.07-4.26,2.62-1.05,1.55-1.42,3.7-1.12,6.47.31,2.77,1.13,4.79,2.47,6.07,1.34,1.28,2.93,1.82,4.78,1.61,1.79-.2,3.21-1.07,4.26-2.62Z" style="fill: #5067dd;"/>
    <path d="m226.99,390.53c5.1,2.06,9.21,5.25,12.32,9.57,3.11,4.32,4.99,9.42,5.65,15.3.65,5.82-.06,11.21-2.13,16.17-2.07,4.96-5.37,9.05-9.88,12.27-4.51,3.22-9.97,5.19-16.37,5.9l-25.51,2.85-6.84-61.21,25.51-2.85c6.4-.72,12.15-.05,17.25,2.01Zm-4.16,37.58c2.27-2.65,3.16-6.16,2.67-10.54-.49-4.38-2.14-7.61-4.94-9.69-2.8-2.08-6.36-2.88-10.68-2.39l-4.58.51,3.05,27.32,4.58-.51c4.32-.48,7.62-2.05,9.89-4.7Z" style="fill: #5067dd;"/>
    <path d="m251.14,407.66c1.34-3.97,3.42-7.12,6.25-9.45,2.83-2.33,6.15-3.71,9.95-4.13,3.17-.35,5.98-.01,8.43,1.03,2.45,1.04,4.41,2.62,5.87,4.73l-.74-6.66,19.11-2.14,5.45,48.76-19.11,2.14-.74-6.66c-.96,2.38-2.52,4.35-4.68,5.91-2.16,1.55-4.83,2.51-8,2.86-3.8.43-7.35-.19-10.62-1.83-3.28-1.65-6.01-4.26-8.19-7.84-2.18-3.58-3.56-7.93-4.13-13.06-.57-5.13-.19-9.68,1.14-13.65Zm29.82,4.06c-1.49-1.29-3.27-1.82-5.34-1.59-2.08.23-3.7,1.14-4.86,2.73-1.17,1.59-1.6,3.68-1.31,6.27.29,2.59,1.18,4.54,2.66,5.83,1.49,1.29,3.27,1.82,5.34,1.59,2.07-.23,3.69-1.14,4.86-2.73,1.16-1.59,1.6-3.68,1.31-6.27-.29-2.59-1.18-4.54-2.67-5.83Z" style="fill: #5067dd;"/>
    <path d="m342.63,419.09l1.83,16.34-7.26.81c-13.37,1.5-20.8-4.41-22.29-17.73l-1.43-12.8-6.05.68-1.79-16,6.05-.68-1.32-11.76,19.2-2.15,1.31,11.76,7.96-.89,1.79,16-7.96.89,1.47,13.14c.13,1.15.5,1.96,1.1,2.42.61.46,1.54.62,2.81.47l4.58-.51Z" style="fill: #5067dd;"/>
    <path d="m347.63,396.87c1.34-3.97,3.42-7.12,6.25-9.45s6.15-3.71,9.96-4.13c3.17-.35,5.98-.01,8.43,1.03,2.45,1.04,4.41,2.62,5.87,4.73l-.74-6.66,19.11-2.14,5.45,48.76-19.11,2.14-.74-6.66c-.96,2.38-2.52,4.35-4.68,5.91-2.16,1.55-4.83,2.51-8,2.86-3.8.43-7.34-.19-10.62-1.83-3.28-1.65-6.01-4.26-8.19-7.84-2.18-3.58-3.56-7.93-4.13-13.06-.57-5.13-.19-9.68,1.14-13.65Zm29.83,4.06c-1.49-1.29-3.27-1.82-5.34-1.59-2.08.23-3.7,1.14-4.86,2.73-1.17,1.59-1.6,3.68-1.31,6.27.29,2.59,1.18,4.54,2.67,5.83,1.49,1.29,3.27,1.82,5.34,1.59,2.07-.23,3.69-1.14,4.86-2.73,1.16-1.59,1.6-3.68,1.31-6.28-.29-2.59-1.18-4.54-2.67-5.83Z" style="fill: #5067dd;"/>
    <path d="m142.16,469.53l1.7,15.22-24.04,2.69.95,8.47,17.29-1.93,1.61,14.44-17.29,1.93,2.58,23.08-19.2,2.15-6.84-61.21,43.23-4.83Z" style="fill: #5067dd;"/>
    <path d="m165.16,526.49c-4.15-1.58-7.54-4.13-10.18-7.66-2.64-3.53-4.25-7.83-4.81-12.9-.57-5.07.05-9.62,1.84-13.64,1.8-4.02,4.54-7.26,8.24-9.72,3.69-2.45,7.99-3.96,12.89-4.5,4.9-.55,9.42-.03,13.57,1.55,4.14,1.58,7.54,4.13,10.18,7.66,2.64,3.53,4.25,7.83,4.81,12.9.57,5.07-.05,9.62-1.84,13.64-1.8,4.02-4.54,7.26-8.24,9.72-3.69,2.46-7.99,3.96-12.89,4.51-4.9.55-9.42.03-13.57-1.55Zm15.97-17.68c1.05-1.55,1.42-3.7,1.12-6.47-.31-2.77-1.15-4.79-2.52-6.07-1.37-1.28-2.95-1.81-4.73-1.61-1.79.2-3.21,1.07-4.26,2.62-1.05,1.55-1.42,3.7-1.12,6.47.31,2.77,1.13,4.79,2.47,6.07,1.34,1.28,2.93,1.82,4.78,1.61,1.79-.2,3.21-1.07,4.26-2.62Z" style="fill: #5067dd;"/>
    <path d="m256.64,469.34l5.45,48.76-19.19,2.15-.83-7.44c-1.24,2.47-3.03,4.57-5.38,6.29-2.35,1.72-5.25,2.77-8.71,3.16-5.59.62-10.17-.76-13.73-4.15-3.56-3.39-5.7-8.29-6.41-14.69l-3.16-28.27,19.11-2.14,2.89,25.85c.26,2.31,1.08,4.07,2.47,5.28,1.39,1.22,3.12,1.71,5.2,1.48,2.13-.24,3.73-1.1,4.79-2.59,1.06-1.49,1.46-3.39,1.2-5.69l-2.89-25.85,19.19-2.15Z" style="fill: #5067dd;"/>
    <path d="m313.13,468.36c3.56,3.4,5.7,8.29,6.41,14.69l3.16,28.27-19.11,2.14-2.89-25.85c-.26-2.31-1.08-4.07-2.47-5.28-1.39-1.22-3.12-1.71-5.2-1.48-2.13.24-3.73,1.1-4.79,2.59-1.06,1.49-1.46,3.39-1.2,5.69l2.89,25.85-19.19,2.15-5.45-48.76,19.19-2.15.83,7.44c1.24-2.47,3.04-4.57,5.38-6.29,2.35-1.72,5.25-2.77,8.71-3.16,5.59-.62,10.17.76,13.73,4.16Z" style="fill: #5067dd;"/>
    <path d="m326.82,472.65c1.34-3.97,3.42-7.12,6.25-9.45,2.83-2.33,6.15-3.71,9.95-4.13,3.17-.35,5.97-.01,8.39,1.03,2.42,1.04,4.36,2.62,5.83,4.73l-2.45-21.87,19.19-2.15,7.15,63.98-19.19,2.15-.74-6.66c-.96,2.38-2.5,4.35-4.64,5.9-2.13,1.55-4.78,2.51-7.95,2.86-3.8.43-7.35-.19-10.62-1.83-3.28-1.65-6.01-4.26-8.19-7.84-2.18-3.58-3.56-7.93-4.13-13.06-.57-5.13-.19-9.68,1.14-13.65Zm29.83,4.06c-1.49-1.29-3.27-1.82-5.34-1.59-2.08.23-3.7,1.14-4.86,2.73-1.17,1.59-1.6,3.68-1.31,6.27.29,2.59,1.18,4.54,2.67,5.83,1.49,1.29,3.27,1.82,5.34,1.59,2.08-.23,3.69-1.14,4.86-2.73,1.16-1.59,1.6-3.68,1.31-6.27-.29-2.59-1.18-4.54-2.67-5.83Z" style="fill: #5067dd;"/>
  </g>
</svg>