<?xml version="1.0" encoding="UTF-8"?>
<svg id="Layer_1" data-name="Layer 1" xmlns="http://www.w3.org/2000/svg" viewBox="0 0 250 247.13">
  <g id="Black_White" data-name="Black &amp;amp; White">
    <path d="m106.95,246.68c-3.72-1.01-7.59-1.55-10.95-3.64-1.1-.68-2.37-1-3.59-1.33-1.74-.47-3.25-1.33-4.76-2.25-2.26-1.37-4.91-1.71-7.3-2.76-3.16-1.39-6.55-1.95-9.88-2.71-.16-.04-.33-.04-.49-.04-1.72,0-3.42.03-5.1-.48-1.17-.35-2.39.22-3.55.18-2.37-.09-4.63.54-6.93.81-2.26.27-4.3,1.27-6.49,2.24,0-1.26-.06-2.41.01-3.55.26-4.04-.49-7.98-1.51-11.82-1.49-5.62-4.18-10.69-7.72-15.32-1.31-1.71-2.57-3.45-3.83-5.2-1.25-1.73-2.56-3.45-4.11-4.88-3.1-2.86-5.33-6.39-7.85-9.7-2.07-2.72-3.45-5.79-4.24-9.02-.5-2.05-.93-4.3-.06-6.5.78-1.95.68-4.15,1.68-6.04.23-.43-.06-.45-.32-.59-1.89-1.06-3.54-2.45-5.27-3.73-1.29-.96-2.4-2.13-3.3-3.49-2.86-4.33-4.44-9.01-4.35-14.26.05-2.79.45-5.53.76-8.29.33-2.91.29-5.84.51-8.75.28-3.82.43-7.63.48-11.46.04-2.45-.64-4.73-1.04-7.09-.6-3.57-2.16-6.8-3.41-10.14-.62-1.66-1.9-2.85-2.7-4.36-.4-.75-.91-1.45-1.4-2.15-.43-.61-.18-1.5.56-1.58,2.44-.27,4.74-1.01,6.93-2.02,3.6-1.67,7.13-3.42,10.09-6.19,4.52-4.23,8.48-8.92,11.83-14.1,1.95-3.01,3.61-6.21,5.65-9.17,2.15-3.12,4.48-6.09,7.27-8.66,4.77-4.41,10.47-6.12,16.88-5.63,2.36.18,2.28.18,2.78-2.11.72-3.33,2.01-6.4,4.57-8.79.9-.84,1.82-1.68,2.38-2.82.1-.21.29-.43.49-.54,3.52-1.96,6.9-4.32,10.85-5.26,4.09-.98,8.18-1.98,12.3-2.85,4.78-1.01,9.51-2.21,13.81-4.68.97-.56,2.09-.85,3.14-1.29,4.05-1.69,7.21-4.58,10.27-7.62,1.81-1.8,3.14-3.98,4.84-5.85.34-.38-.23-1.46.8-1.15.82.25,1.63.44,2.04,1.56.61,1.67,2.26,2.69,3.28,4.12,2.79,3.9,6.36,6.82,10.68,8.74,4.32,1.91,8.48,4.25,13.17,5.26,5.69,1.23,11.34,2.64,17.01,3.98,2.58.61,5.01,1.93,7.33,3.35,4.22,2.58,7.16,6.2,9.03,10.73.57,1.39.82,2.87,1,4.35.05.44.09.7.63.6,3.39-.66,6.71-.32,10.02.59,1.18.32,2.07,1.05,3.08,1.61.25.14.46.33.71.46,4.67,2.46,7.18,6.98,10.34,10.88.69.86,1.21,1.82,1.65,2.84,1.48,3.43,4.1,6.16,5.89,9.39,2.91,5.26,7.35,9.17,11.6,13.23,2.43,2.33,5.59,3.67,8.66,5.02,2.18.95,4.41,1.78,6.65,2.57.48.17.97.08,1.54.34-.81.98-1.6,1.95-2.39,2.9-2.18,2.59-3.1,5.81-4.46,8.82-1.37,3.03-1.86,6.28-2.65,9.45-.16.63-.07,1.32-.07,1.98,0,3.4-.28,6.83.1,10.18.46,4.05.2,8.12.68,12.15.23,1.9.59,3.78.8,5.68.55,4.92-.85,9.53-2.69,13.95-1.16,2.8-3.39,4.97-5.91,6.72-1.04.72-1.95,1.62-3.15,2.11-.62.26-.47.68-.26,1.21.61,1.58,1.59,2.97,1.82,4.75.46,3.57.59,7.04-.48,10.55-.56,1.84-1.51,3.43-2.35,5.11-2.13,4.26-5.75,7.28-8.7,10.85-1.43,1.73-2.57,3.66-4.06,5.34-2.88,3.25-5.49,6.75-7.54,10.58-2.26,4.24-4.03,8.65-4.8,13.48-.53,3.37-.36,6.71-.46,10.07-.01.44,0,.89,0,1.55-2.74-2.26-5.98-2.73-9.11-3-2.72-.23-5.43-.81-8.18-.64-6.32.39-12.32,2.1-18.23,4.27-2.85,1.05-5.43,2.64-8.28,3.69-4.58,1.68-8.93,4-13.83,4.77-1.64.26-3.32.15-4.93.67-.16.05-.32.05-.36.25h-.25c-.45-.33-.93-.64-1.51-.52-1.33.27-2.51-.18-3.6-.82-.62-.37-1.27-.48-1.92-.65-.67-.17-1.3-.42-1.85-.82-1.34-.98-2.67-1.99-4-2.99-1.61-1.21-1.53-1.1-3.1,0-1.78,1.26-3.27,2.99-5.42,3.67-2.15.68-4.24,1.56-6.56,1.66-.75.03-1.57.35-2.3.17-1.03-.26-2.04-.2-3.06-.17Zm119.79-84.05c1.88.16,3.2-.78,4.53-1.78,2.64-1.99,4.75-4.43,6.49-7.24,1.8-2.91,1.6-6.24,2.13-9.41.4-2.4-.37-4.81-.46-7.23-.07-1.78.03-3.56-.14-5.33-.37-4.02-1.08-8-1.05-12.06.02-2.91.08-5.81.41-8.72.25-2.27.5-4.49,1.49-6.58.33-.69.45-1.48.59-2.24.14-.75.35-1.46.62-2.18.96-2.6,2.6-4.82,3.95-7.2.32-.56.96-1.07.85-1.71-.13-.74-1-.28-1.48-.55-.03-.02-.05-.07-.09-.09-4.06-1.82-8.1-3.63-11.66-6.38-1.24-.96-2.19-2.21-3.48-3.11-2.01-1.4-3.7-3.19-5.11-5.14-3.05-4.22-5.87-8.6-8.82-12.89-2.47-3.59-4.13-7.71-7.21-10.9-1.67-1.72-3.12-3.78-5.18-4.96-2.54-1.46-5.43-2.24-8.4-2.36-2.07-.08-4.14-.07-6.21.01-.85.04-1.19-.44-1.19-1.01,0-.64-.26-1.19-.34-1.8-.32-2.46-1.07-4.78-2.65-6.76-.22-.28-.41-.61-.55-.94-.73-1.78-2.21-2.96-3.59-4.13-2.6-2.19-5.95-2.9-9.05-4.04-3.36-1.23-6.93-1.82-10.44-2.5-3.02-.58-5.79-2.07-8.74-2.62-3.63-.68-6.82-2.31-10.15-3.64-2.18-.87-3.8-2.6-5.69-3.91-3.51-2.44-6.79-5.12-9.28-8.66-.81-1.15-1.11-1.14-1.92.02-1.74,2.47-3.71,4.71-6.21,6.43-3.01,2.08-5.62,4.78-9.02,6.25-2.96,1.28-5.84,2.77-9.13,3.25-1.91.28-3.69,1.33-5.58,1.83-2.88.77-5.8,1.38-8.71,2.02-5.57,1.24-10.82,3.08-15.51,6.57-3.79,2.82-5.13,6.94-6.99,10.83-.63,1.31-.64,2.87-.57,4.46-.73-.54-1.12-1.14-2.02-1.3-1.69-.31-3.39-.31-5.03-.1-1.29.17-2.61-.1-3.87.38-3.12,1.19-6.07,2.62-8.43,5.08-2.11,2.2-3.98,4.58-5.8,7.02-3.66,4.92-6.83,10.17-10.34,15.2-.81,1.17-1.44,2.49-2.37,3.55-3.45,3.93-7.53,7.15-11.78,10.17-2.57,1.82-5.48,2.89-8.46,3.84-.68.22-1.75.07-1.95.67-.23.67.78,1.13,1.16,1.76,2.31,3.85,3.89,8.02,5.1,12.31,1.06,3.78,1.77,7.64,1.47,11.62-.12,1.52,0,3.06-.02,4.6,0,.66-.03,1.33-.14,1.98-.42,2.65-.8,5.31-.93,8-.12,2.43.08,4.86-.29,7.28-.46,3.07-.54,6.13.28,9.16.58,2.14.77,4.44,2.03,6.31,2.24,3.33,4.91,6.23,8.66,7.97,1.14.53,2.4,1.14,2.99,2.49-.56.22-1.25-.14-1.5.55-.28.76-.6,1.52-.75,2.31-.49,2.67-.92,5.29-.6,8.1.36,3.08,1.28,5.81,2.85,8.42,2.83,4.7,6.38,8.81,10.08,12.84,3.7,4.03,7.33,8.13,10.03,12.96,1.91,3.43,3.61,6.95,4.85,10.67.32.94.32,1.99.52,2.98.53,2.63,1.24,5.23,1.11,7.97-.1,2.2-.01,2.23,2.14,1.67,4.3-1.11,8.69-1.02,13.09-1.14,4.06-.12,7.91.84,11.77,1.76,5.09,1.21,9.63,3.89,14.47,5.79,3.8,1.49,7.4,3.51,11.44,4.42,1.87.42,3.71,1.11,5.6,1.28,6.34.57,11.51-2.14,16.19-6.09.27-.23.34-.42.33-.71-.03-.8.33-.74.78-.33,2.36,2.12,4.91,3.91,7.71,5.43,1.86,1.01,3.78,1.52,5.81,1.73,4.31.45,8.34-1.01,12.23-2.4,6.1-2.18,12.01-4.92,17.97-7.49,3.81-1.65,7.8-2.88,11.88-3.17,6.57-.47,13.19-.57,19.7,1.49-.08-1.65.61-3.13.49-4.59-.34-4.15,1.18-7.91,2.46-11.64,1.58-4.58,3.79-8.94,7.15-12.56,1.64-1.76,2.79-3.9,4.36-5.72,2.24-2.61,4.33-5.36,6.7-7.85,2.16-2.28,3.45-5.09,5.19-7.63,1.76-2.58,2.57-5.38,2.48-8.47-.02-.7.05-1.41-.01-2.11-.29-3.54-.96-6.96-3.25-10.07Z" style="fill: #201b18;"/>
    <path d="m63.16,50.59c1.43.06,2.95-.16,4.44.37.49.17.95.18,1.14-.75.37-1.81,1.14-3.53,1.19-5.43,0-.28.29-.56.45-.84.68-1.16,1.38-2.3,1.86-3.58.87-2.29,2.79-3.69,4.72-4.96,3.8-2.49,8.16-3.76,12.46-4.9,3.49-.93,7.15-1.34,10.63-2.4,2.69-.82,5.27-2,7.94-2.87,4.63-1.52,8.58-4.18,12.38-7.13,1.92-1.5,3.6-3.23,5.05-5.18.52-.7.87-.68,1.4,0,2.03,2.66,4.27,5.23,7.13,6.9,4.38,2.56,8.52,5.68,13.75,6.62,2.23.4,4.35,1.44,6.53,2.15,3.57,1.16,7.26,1.83,10.94,2.46,1.18.2,1.96,1.17,3.13,1.29,2.4.23,4.25,1.87,6.45,2.62.63.22,1.17.93,1.58,1.54,1.04,1.55,2.36,2.84,3.1,4.7,1.17,2.96,2.4,5.88,3.11,9,.14.6.66.38,1.02.38,2.69.02,5.42-.25,8.07.08,2.88.36,6.01.48,7.95,3.32.51.75,1.51.97,2.14,1.65,2.41,2.6,4.29,5.57,6.01,8.63,1.89,3.37,4.07,6.54,6.36,9.62,2.38,3.2,4.59,6.59,7.54,9.3,3.48,3.2,7.15,6.19,11.69,7.88.83.31,1.58.83,2.34,1.29.6.36.75.83.2,1.4-2.25,2.34-3.4,5.28-4.29,8.31-.45,1.54-.62,3.18-.79,4.78-.3,2.72-.92,5.43-.67,8.19.26,2.89.6,5.77.86,8.66.12,1.26.11,2.53.24,3.8.5,5.01.59,10.04.5,15.07-.07,3.73-1.5,7.06-3.8,9.79-1.56,1.85-3.64,3.38-5.77,4.71-.59.37-1.06.96-1.68,1.22-1.47.63-1.42,1.57-.92,2.84.94,2.43,1.91,4.84,2.29,7.46.31,2.11.37,4.14-.51,6.11-.43.96-.85,1.92-1.08,2.94-.64,2.86-2.66,4.89-4.46,6.97-3.81,4.38-7.38,8.96-11.09,13.43-2.47,2.98-4.45,6.25-6.12,9.66-1.24,2.52-2.25,5.24-2.64,8.11-.29,2.12-.64,4.24-.99,6.35-.09.57-.38.96-1.07.87-1.57-.2-3.16-.32-4.72-.55-4.22-.64-8.4-.64-12.55.52-7.37,2.06-14.39,5.07-21.52,7.79-4.18,1.6-8.47,3.16-12.94,3.85-4.43.68-8.26-.97-11.69-3.67-1.28-1.01-2.55-2.04-3.8-3.09-.4-.34-.61-.38-1.11-.02-2.55,1.87-4.84,4.13-7.74,5.51-1.15.55-2.36.85-3.64.85-1.53,0-3.07-.08-4.6.01-4.35.27-8.22-1.35-12.13-2.89-3.42-1.35-6.53-3.36-9.99-4.59-2.9-1.03-5.91-1.75-8.87-2.63-4.39-1.3-8.88-1.9-13.44-1.99-1.92-.04-3.81.31-5.66.86-.27.08-.55.15-.83.21-2.01.45-2.38.13-2.44-1.88-.18-5.87-1.86-11.25-4.89-16.33-3.99-6.69-9.19-12.46-13.81-18.66-1.08-1.45-2.54-2.61-3.83-3.9-.87-.87-1.43-1.92-1.91-3.06-.74-1.75-1.88-3.32-2.44-5.18-.16-.52-.29-1.01-.31-1.56-.15-4.31.32-8.53,1.77-12.61.19-.53.03-.79-.45-1.06-2.77-1.55-5.29-3.49-7.65-5.55-2.43-2.12-4.01-5.02-4.46-8.28-.69-4.97-.27-9.99-.24-14.98.02-3.79.63-7.57.88-11.35.21-3.1.49-6.26-.41-9.33-.07-.23-.06-.49-.04-.74.31-3.83-1.27-7.19-2.66-10.58-.64-1.56-1.44-3.07-2.29-4.54-.4-.7-.13-1,.43-1.1,2.54-.42,4.6-1.91,6.84-2.99,2.9-1.39,5.25-3.45,7.32-5.83,1.92-2.21,3.66-4.59,5.5-6.88,1.9-2.38,3.38-5.06,5.19-7.5,1.89-2.55,3.84-5.06,5.65-7.68,1.47-2.14,3.15-4.06,4.88-5.99,2.4-2.67,5.31-4.02,8.73-4.69,1.68-.33,3.35-.35,5.12-.38Zm1.85,157.11c0,.49,0,.65,0,.82,0,2.72-.02,2.64,2.65,1.94,2.42-.64,4.93-1.19,7.41-.74,4.2.76,8.52,1.03,12.53,2.63,3.22,1.29,6.9,1.45,9.63,3.95.23.21.55.38.86.44,2.49.56,4.84,1.5,7.17,2.53,2.87,1.28,5.96.85,8.98.95,1.58.05,2.99-.33,4.36-1.03,2.1-1.06,3.71-2.78,5.58-4.15.64-.47.97-.52,1.65.04,2.16,1.79,4.26,3.7,7,4.61,1.93.64,3.88,1.48,5.94,1.04,2.67-.57,5.3-1.37,7.94-2.11,3.64-1.02,6.84-3.14,10.42-4.3,4.59-1.49,8.92-3.69,13.82-4.33,4.42-.58,8.72-.5,12.94.92,1.05.35,1.19.1,1.15-.83-.12-2.72.4-5.39,1.26-7.92,1.46-4.34,3.65-8.32,6.17-12.17,3.24-4.95,7.22-9.28,10.85-13.9,1.83-2.33,3.6-4.51,4.27-7.55.78-3.56.95-6.92-.83-10.22-.45-.84-.67-1.81-1.02-2.71-.2-.5-.02-.75.44-.96,2.07-.93,3.8-2.39,5.72-3.57,1.78-1.09,2.96-2.89,3.61-4.68,1.69-4.68,1.21-9.63,1.02-14.49-.12-3.17-.76-6.31-.89-9.48-.16-3.72-.18-7.46.02-11.18.13-2.43.57-4.89,1.5-7.19.79-1.98,1.4-4.06,3-5.62.24-.23.72-.85-.12-.93-2.53-.24-4.32-2-6.15-3.34-3.11-2.27-5.97-4.9-8.65-7.77-3.36-3.6-5.86-7.73-8.54-11.75-2.68-4.03-5.04-8.26-8.79-11.46-.32-.27-.61-.61-1-.69-2.58-.55-5.07-1.57-7.81-1.24-1.35.16-2.74-.05-4.1.06-.91.07-1.23-.34-1.4-1.09-.29-1.3-.57-2.6-.88-3.9-.38-1.62-1.37-2.98-2.01-4.44-1.04-2.38-2.94-3.84-4.9-4.74-3.48-1.59-7.25-2.58-10.97-3.56-2.63-.69-5.36-1.03-8-1.78-3.15-.9-6.16-2.28-9.07-3.65-4.07-1.91-8.11-4.16-11.1-7.8-1.37-1.67-1.51-1.56-2.97.08-.22.24-.43.52-.71.68-2.11,1.17-3.66,3.05-5.7,4.38-4.07,2.66-8.4,4.54-12.96,6.05-2.44.81-5.03.9-7.47,1.74-1.86.64-3.72,1.31-5.71,1.61-1.09.16-2.42.07-3.26.77-1.67,1.4-3.8,1.84-5.56,3.09-1.47,1.05-2.57,2.25-3.47,3.73-1.38,2.26-2.03,4.79-2.74,7.31-.58,2.06-.64,2.05-2.71,2.04-1.11,0-2.21.06-3.29-.35-.42-.16-1-.06-1.46.07-.83.24-1.68.29-2.52.41-1.47.21-3.03.42-4.26,1.25-2.1,1.41-4.03,3.16-5.41,5.21-2.05,3.05-4.2,6.03-6.29,9.05-3.46,5.02-6.76,10.21-11.43,14.23-2.98,2.57-6.14,4.96-10.15,5.79-.34.07-.51.09-.34.53.55,1.44.92,2.94,1.82,4.24.32.46.72.98.77,1.5.22,2.7,2.11,5.07,1.55,7.92-.02.1.1.22.13.34.62,2.73.56,5.52.27,8.25-.31,2.95-.68,5.91-.86,8.87-.23,3.76.05,7.54-.09,11.3-.14,3.9,1.68,6.94,4.14,9.58,1.83,1.96,4.09,3.53,6.6,4.63.47.21.85.27.54,1.06-.55,1.41-.8,2.94-1.21,4.41-.52,1.91-.88,3.88-.51,5.8.87,4.55,2.79,8.59,6.33,11.73.39.35.75.74,1.07,1.19,2.62,3.7,5.87,6.9,8.5,10.59,1.66,2.33,3.21,4.73,4.47,7.33.99,2.05,1.68,4.18,2.35,6.34.51,1.64,1.1,3.18.9,4.6Z" style="fill: #201b18;"/>
    <path d="m127.13,128.79c.21.96,1.03,1.91,0,2.89-.13.12.04.26.17.38.51.48.35,1,.04,1.52-.26.44-.52.88.13,1.23.03.02.07.07.06.09-.33,1.47.36,3.07-.61,4.66,2.25-.61,4.66.22,6.71-1.24.49-.35,1.08-.3,1.63-.38,2.37-.35,4.12-1.83,5.92-3.22,1.26-.98,2.57-1.91,3.72-3.01,2.42-2.31,4.25-5.02,5.7-8.07,1.35-2.85,2.03-5.84,2.42-8.88.29-2.29.41-4.66-.24-7-.34-1.23-.32-2.58-.71-3.82-1.06-3.3-2.38-6.48-4.66-9.17-.36-.42-.65-.9-.9-1.44.93.35,1.79.78,2.48,1.53,1.65,1.78,3.45,3.45,4.97,5.34,1.44,1.78,2.35,3.93,3.3,6.01.85,1.86,1.65,3.74,2.15,5.72.94,3.73,1.68,7.45.79,11.34-.54,2.36-.57,4.83-1.09,7.2-.57,2.63-1.73,5.11-3.1,7.41-3.62,6.08-8.74,10.54-15.06,13.72-3.22,1.62-6.64,2.26-10.13,2.84-1.29.21-2.6.07-4.1.35.94.68,1.33,1.27.36,1.98-.27.2-.38.52-.38.88,0,2.92,0,5.84,0,9.02,2.39-4.44,5.95-7.14,10.82-8.68-.87,1.61-1.94,2.49-3.45,2.59-.73.05-.82.7-1.32.95-1.81.93-2.92,2.57-4.15,4.12-1.15,1.45-1.73,3.17-2.51,4.79-.18.36-.37.78-.68.77-.32,0-.28-.5-.36-.81-.39-1.42-1.33-2.53-2.22-3.64-1.48-1.84-2.79-3.84-4.72-5.29-.26-.19-.55-.53-.8-.51-1.28.11-2.08-.85-3.1-1.3-1.34-.59-2.85-.54-4.12-.17-3.96,1.15-7.91,2.41-11.73,3.95-1.74.7-3.59,1.03-5.31,1.83-1.31.61-2.89.65-4.34,1.03-.47.12-.61.25-.76.69-.67,1.97-1.41,3.92-2.13,5.89.16.26.4.18.63.11,2.23-.65,4.44-1.42,6.7-1.92,1.44-.32,2.8-.96,4.32-1.03,1.03-.04,1.71-.93,2.54-1.43,1.08-.65,2.05-1.53,3.45-1.3.32.05.51-.2.76-.34,2.34-1.33,4.87-1.91,7.55-1.8.24.01.54.03.7.18.84.74,1.81.84,2.85.74.12-.01.32-.06.36,0,.66.96,1.98,1,2.66,1.83,2.15,2.64,5.05,4.65,6.46,7.91l.28-.11c0-.8-.04-1.61.02-2.41.03-.34-.4-.96.4-1,.9-.04.51.67.54,1.07.06.66.02,1.32.12,2.05.54-1.58,1.53-2.82,2.79-3.82,1.4-1.12,2.6-2.41,3.82-3.73.97-1.06,2.06-2.25,4.04-2.18,1.2.04,2.59-.77,3.92-.5,1.7.34,3.43.73,5.07,1.25,2.25.7,4.38,1.82,6.39,3.12,1.36.88,2.98.9,4.49,1.23.77.17,1.49.41,2.19.73.96.44,1.92.95,3.03.76.75-.13,1.24.6,1.99.54.58-.05.88-.18.7-.8-.49-1.66-1-3.31-1.47-4.98-.1-.35-.18-.73-.55-.69-.91.11-1.69-.5-2.52-.49-1.11.02-2.02-.38-3.01-.76-2.8-1.09-5.66-2.03-8.5-3.02-.15-.05-.33-.03-.37-.33.99-.77,2.1-.46,3.06-.05,1.69.71,3.57,1,5.13,1.78,1.74.88,3.71.8,5.35,1.79.07.04.17.07.24.05,1.88-.44,2.1.88,2.44,2.2.46,1.84,1.03,3.65,1.62,5.68.74-1.1,1.36-2.01,2.04-3.01.53,1.04.93,1.94.8,3.02-.08.67.23.96.89.59.89-.49,1.88-.34,2.78-.22,1.09.14.57,1.12.42,1.65-.45,1.55-.51,1.54,1.09,1.53,1.27,0,2.39.64,3.82.71-1.77.98-3.69.48-5.38,1.55,3.25.82,6.3-.28,9.46-.3-.67,1.33-1.63,2.19-2.6,3.13-1.14,1.12-2.31,2.31-3.27,3.65-.53.74-.05,1.32.43,1.82,1.15,1.19,2.28,2.42,3.53,3.5.91.78,1.16,2.1,2.36,2.62.24.1.1.33-.16.53-.47.37-.9.6-1.53.6-3.31-.03-6.63-.01-9.94-.02-.21,0-.42,0-.62-.03-1.57-.29-1.55-.29-1.58,1.26-.02.77.39,1.81-.18,2.26-.92.73-2.09,1.36-3.24,1.53-.88.13-1.7.44-2.46.72-2.15.79-4.25.65-6.39.16-4.36-1-8.7-2.03-13.06-3.03-.67-.16-1.28-.57-1.91-.68-2.52-.45-4.92-1.34-7.5-1.7-1.96-.27-4.08.14-5.95-.84-.96-.5-2.05-.37-3.03-.2-2.65.44-5.28.91-7.97.94-.33,0-.63.08-.94.22-1.88.82-3.91,1.16-5.84,1.85-1.86.67-3.91.99-5.88,1.43-2.78.62-5.52,1.42-8.26,2.19-1.75.49-3.74.34-5.63-.05-.95-.2-1.86-.51-2.79-.73-1.12-.26-2.15-.92-3.19-1.46-.38-.2-.57-.57-.54-1.09.06-1.07.02-2.15.02-3.16-4.35.85-8.69.22-13,.45-.67.03-1.04-.4-1.31-.75-.32-.41.33-.65.59-.92.93-.98,1.69-2.18,2.66-3,1.13-.96,2.17-2.02,3.3-2.96.69-.58.74-.95.03-1.61-2.21-2.04-4.33-4.17-6.73-6.5,3.25-.31,6,1.03,8.93.28-1.98-.5-3.9-1.05-5.53-2.44,2.58-.34,5.1-1.16,7.66-.36.94.29,1.77.97,2.66,1.43.26.14.6.52.88.16.3-.4-.25-.52-.42-.75-1.03-1.39-1.17-2.94-.83-4.55.1-.47.35-.91.56-1.35q.83-1.76,2.24-.36c.6-1.66,1.25-3.28,1.74-4.95.15-.49.45-.8.75-.79,1.5.06,2.74-1.17,4.28-.79.08.02.19.03.24,0,1.43-.94,3.16-1.1,4.66-1.78,2.16-.97,4.41-1.59,6.67-2.23,1.28-.36,2.5-.92,3.73-1.42,2.06-.84,4.26-1.16,6.36-.68,1.34.31,2.64,1.13,3.93,1.73,1.3.61,2.45,1.76,3.39,2.97,1.12,1.44,2.24,2.86,3.48,4.45,0-4.21,0-8.16,0-12.12,0-.51-.23-.63-.68-.61-2.72.12-5.3-.8-7.97-1.05-1.07-.1-2.15-.72-3.11-1.3-2.66-1.6-5.55-2.77-8.09-4.58-1.53-1.09-2.62-2.55-3.79-3.98-2.33-2.87-4.65-5.7-6.06-9.19-1.65-4.11-2.94-8.21-3.07-12.74-.17-6.05,1.37-11.63,3.69-17.04,1.04-2.42,2.75-4.51,4.47-6.53,1.31-1.53,2.62-3.06,4.27-4.25.37-.27.74-.45,1.49-.54-.77,1.15-1.52,2.05-2.03,3.06-1.09,2.18-2.61,4.1-3.53,6.39-1.14,2.83-1.4,5.83-1.76,8.78-.17,1.35.49,2.78.66,4.18.45,3.61,1.96,6.86,3.35,10.15,1.06,2.52,3.15,4.19,5.03,6.01,1.17,1.13,2.61,1.96,3.81,3.06,2.1,1.93,4.82,2.42,7.31,3.48,1.55.66,3.04,1.08,4.7.94.87-.07,1.39-.25,1-1.35-.42-1.16-.02-2.41-.04-3.61-.09-6.32.12-12.65-.02-18.98-.01-.61-.03-1.06-.83-.94-.81.12-1.1-.38-.92-1.04.33-1.22-1.16-1.56-1.2-2.6,0-.05-.93-.13-1.41-.06-1.14.15-1.41-.41-1.39-1.42.05-3.33-.43-6.63-.57-9.96-.09-2.15.09-4.35-.39-6.49-.08-.36-.35-1.07.56-1.04.6.02,1.06-.14,1.21.86.41,2.63.89,5.26,1.52,7.84.38,1.58.47,3.19.91,4.75.14.51.29.7.79.7,2.2,0,4.4.1,6.58-.05,1.03-.07.96-1.24.78-1.9-.29-1.11.05-1.96.55-2.85.08-.14.24-.27.24-.41.14-2.79,1.33-5.39,1.5-8.17.05-.73.48-.73,1-.77.61-.04.79.19.74.78-.28,3.83-.42,7.67-.7,11.51-.13,1.8-.38,3.6-.29,5.41.04.74-.14,1.04-.94.97-.92-.07-2.07-.32-1.8,1.31-1.16.38-1.33,1.35-1.43,2.38,0,.03-.14.08-.22.08-1.58.05-1.25,1.22-1.27,2.17-.06,2.97-.04,5.94-.31,8.9-.07.72-.21,1.49.43,2.15.17.18.37,1.01-.43,1.15-.49,0,.08-.61-.29-.55-.18.03-.78.12-.43.65-.28-.32-.43-.14-.54.15-.26.08-.6.09-.49.52-.22-.24-.33-.03-.43.12-.01.02.07.14.08.14.16-.04.32-.09.33-.29.24-.1.59-.1.48-.52.25.22.38-.05.55-.15.24-.08.44-.58.75-.09Zm-.31,4.21c-.23.12-.59.12-.45.54-.57-.06-.88.23-1.01.76-.2-.23-.31-.03-.42.1-.03.04,0,.13,0,.2.18-.05.37-.09.39-.34.44-.11.76-.37,1-.75.24-.11.62-.11.47-.55.04.11.1.13.18.04.02-.03.01-.08.02-.11-.06.03-.12.07-.18.1Zm-1.24,3.04c.08-.69,1.43-.75.85-1.84-.38.32-.79.58-1.11.93-.34.38-.47.8.29.88.38.74-.87.61-.62,1.37.74-.56,1.89-.54,2.11-1.76-.69-.2-.84.93-1.52.42Zm0,3.19c.68.01.96-.58,1.71-1.08-2.31.85-.26-.74-1.03-.85-.27.4-1.21.24-1.1,1.21.37.25.6-.49.98-.1.12.46-.51.47-.52.85-.33.04-.59.18-.74.82.35-.4.77-.35.71-.84Zm-9.48,29.41c.58.75,1.19,1.43,2.28,1.29-.43-1.4-.6-1.49-2.31-1.26.22-.78-.45-1.55-.82-1.49-1.6.26-2.88-.79-4.38-.89-1.27-.08-2.26.62-3.4.74-.89.09-1.64.31-2.37.81-.45.31-1.01.67-1.51.66-1.5-.05-2.47.93-3.62,1.58-.83.47-1.52,1.22-2.61,1.24-1.5.04-2.99.52-4.32,1-1.91.68-3.88,1.05-5.8,1.66-.77.24-.91.63-1.2,1.35,1.72-.18,3.35-.31,4.8-1,1.94-.93,4.07-1.08,6.08-1.72.72-.23,1.48-.3,2.15-.74,1.08-.72,2.19-1.9,3.31-1.93,2.13-.06,3.54-2.15,5.72-1.7.05.01.13-.09.2-.14,1.39-.83,3-.75,4.29-.23,1.18.47,2.3.7,3.51.77Zm11.52,6.92c.35-.34.69-.7,1.05-1.02,1.48-1.32,3.09-2.47,4.27-4.12.59-.82,1.44-1.79,2.32-1.98,1.22-.25,2.45-.44,3.67-.77,2.4-.65,4.5,1.21,6.88,1.05.19-.01.4.28.61.4.43.24.86.64,1.3.64,1.08,0,1.88.58,2.66,1.14,1.81,1.33,3.93,1.83,6.03,2.4,2.48.68,4.96,1.36,7.43,2.07.4.11.84.41,1.03-.1.19-.52-.13-.75-.7-1.02-1.89-.89-4.12-.48-5.91-1.67-.38-.25-.82-.5-1.35-.54-2.47-.21-4.73-1.12-6.85-2.32-.93-.52-1.9-.85-2.83-1.27-1.56-.71-3.26-.98-4.71-1.64-2.62-1.21-4.78.51-7.14.34-.06,0-.14.09-.18.16-.76,1.08-2.08,1.55-2.77,2.74-.44.75-1.18,1.28-1.91,1.81-1.26.93-2.58,1.9-3.05,3.55-.01.1-.07.26-.03.29.13.09.17-.02.2-.14Zm32.75.79c-.8-.05-1.73.16-2.36-.19-1.72-.94-3.67-1.17-5.46-1.43-2.56-.38-4.67-1.72-7.06-2.42-2.62-.76-5.2-1.34-7.87-1.2-1.42.07-2.97.13-4.21,1.21-1.57,1.37-3.28,2.57-4.84,3.94-.67.6-1.06,1.48-1.16,2.47,1.77-.07,3.36.7,5.07.5,1.45-.17,2.89-.07,4.15.83.44.31.97.21,1.45.17,1.22-.1,2.32.28,3.39.76.77.35,1.55.62,2.39.73,3.08.4,5.94,1.69,8.96,2.34,1.58.34,3.09.92,4.74.93.69,0,.92-.18.9-.89-.05-1.61-.02-3.23-.02-4.84,0-1.93.21-2.22,1.92-2.91Zm-66.37,5.16c0,.95.04,1.91-.02,2.85-.03.49.11.58.58.64,1.6.2,3.04-.39,4.52-.79,1.66-.45,3.3-.97,4.93-1.51,2.49-.82,5.19-.93,7.58-2.07,1.33-.63,2.77-.06,4.05-.65,1.52-.7,3.11-.88,4.76-.79.83.05,1.6-.18,2.41-.37.94-.22,1.04-.35.43-1.1-1.83-2.26-4.03-3.96-6.58-5.4-1.43-.81-2.91-.92-4.33-1.21-3.48-.69-6.67.99-9.94,1.88-1.17.32-2.2,1.28-3.36,1.47-2.28.37-4.55.66-6.71,1.51-.24.1-.67-.08-.71.31-.03.32.29.41.59.49,1.48.38,1.99,1.39,1.81,2.86-.07.61-.01,1.24-.01,1.86Zm53.46,8.11c0,1.52-.01,2.78,0,4.04,0,.29-.18.7.36.76.44.05.55-.26.66-.58.25-.7.35-1.47.87-2.19.17.66.07,1.13-.08,1.66-.39,1.38.31,2.22,1.75,2.36.67.06.93-.08.96-.83.04-1.04.12-2.09.57-3.28.33,1.54.63,2.87.9,4.2.06.32-.02.64.49.66.53.02.49-.28.49-.63,0-.32.14-.59.49-.59.37,0,.17.39.29.58.45.72.82,1.46,1.92,1.4.98-.06,1.43-.67,1.68-1.41.52-1.55.4-3.16.25-4.76q1.32-.09,1.32,1.2c0,1.37-.02,2.73,0,4.1,0,.31-.25.85.38.83.6-.02.38-.56.36-.87-.11-1.57.21-3.11.28-4.67.02-.39.03-.8.49-.88.43-.08.99.07.87-.67-.12-.72-.71-.37-1.1-.42-.41-.05-.83,0-1.24-.01-.73-.03-1.47-.11-1.35,1.13-1.3-1.64-1.61-1.63-3.76-.09-.12-.13-.15-.27-.06-.44.15-.33.36-.69,0-.99-.13-.11-.41-.21-.53-.15-.44.22-.18.65-.23,1-.13.88-.28,1.75-.43,2.62-.4-.48-.51-.93-.61-1.41-.3-1.49-.26-2.96-2.47-3.48-1.44-.34-1.45.22-1.73,1-.31.86-.55,1.74-.82,2.62-.17-1.39-.21-2.72-.15-4.04.03-.71-.44-.83-.9-.89-.56-.08-.61.36-.66.81-.13,1.12-.14,2.31-.54,3.34-.29.73.2,1.62-.72,2.43.27-2.44-.32-4.58-.21-6.77.02-.35.1-.79-.47-.83-.43-.03-.64.04-.85.56-.41,1-.62,2.14-1.49,3.01-.22-.43-.21-.73-.08-1.05.42-1.08.06-2.11-.37-3.05-.61-1.32-2.1-1.37-2.96-.2-.17.23-.15.69-.63.64-.19-1.5-.24-1.38-1.99-1.94-1.25-.4-1.58.08-1.59,1.1-.02,1.79-.44,3.53-.67,5.34-.45-1.14-.71-2.34-1.12-3.48-.57-1.6,1.37-2.07,1.41-3.37-1.95-.44-1.65,2.06-3.21,2.47.45-.83.36-1.56.34-2.29,0-.31.09-.72-.44-.69-.4.02-.55.3-.55.67,0,.7,0,1.4,0,2.1-.28-.37-.35-.75-.47-1.13-.25-.81-.57-1.57-1.56-1.69-.98-.11-1.5.51-1.94,1.27-.66,1.14-.49,2.38-.5,3.6,0,1.33.68,2.63,1.57,2.8,1.42.28,1.95-.75,2.44-1.79,0-.02.07,0,.2-.02,0,.31-.02.62,0,.92.02.25-.19.61.3.67.55.06.4-.34.46-.64.13-.63.29-1.26.49-1.88.05-.16.27-.36.43-.39.27-.05.26.23.31.43.17.67.53,1.34.49,1.99-.08,1.55,1.24.98,1.85,1.16.56.16.48-.81.65-1.28.05-.15.03-.33.01-.49-.04-.41-.14-.96.34-1.06.64-.13.59.55.72.93.26.76.46,1.54.71,2.3.09.28.29.51.65.42.42-.11.31-.45.26-.71-.15-.71-.18-1.52-.57-2.08-.6-.88-.16-.96.58-1.03,0,.42-.04.83,0,1.24.11,1,.5,1.84,1.27,2.53.64.57,1.21.24,1.81.01.2-.07.45-.13.42.18-.04.4,0,.62.48.63.48.01.51-.35.63-.64.14-.33.16-.83.68-.6.68.3,1.65.35,1.44,1.56-.16.92.6,1.09,1.25,1.16.71.07.63-.6.73-1.03.22-.93.17-1.91.72-3.04Zm-55.23,3.78h-.32c-.37-1.33-.79-2.66-1.09-4.01-.23-1-1.12-.69-1.68-.89-.51-.18-.25.52-.37.82-.54,1.41.08,2.94-.43,4.37-.12.32-.12.62-.52.72-.41.1-.62-.18-.82-.43-.34-.43-.59-.96-.4-1.47.48-1.35-.05-2.78.41-4.11.12-.37-.13-.56-.41-.64-.4-.13-.43.17-.5.48-.36,1.79-.29,3.61-.24,5.41.03.82.36,1.62,1.24,1.94.85.32,1.63.18,2.15-.77.07.23.13.34.14.45.04.34-.15.88.39.88.51,0,.15-.53.28-.79.51-.98.04-2.13.48-3.47.4,1.29.64,2.25,1,3.16.24.59-.07,1.78,1.03,1.57.93-.17.36-1.17.44-1.78.18-1.24-.26-2.56.48-3.74-.2,1.7.29,3.35.29,5.04,0,.3-.25.84.42.78.47-.04.66-.41.54-.8-.41-1.4,0-2.86-.41-4.26-.16-.52-.13-1.08.02-1.59.36,0,.36.16.41.31.59,1.68,1.19,3.35,1.8,5.02.12.34.21.71.76.6.56-.12.39-.5.44-.86.21-1.61.21-3.26.77-4.85.25.98.41,1.95.48,2.93.19,2.72.18,2.72,2.74,1.99,2.04-.58,2.02-.58,1.74-2.81-.03-.27-.66-.66,0-.88.45-.15.85-.01,1.15.47.6.99,1.04,2.04,2.71,1.34.94-.39,1.98-.34,2.23-1.56.54.03.17.96.82.72.55-.2.28-.73.25-1.08-.12-1.46-.25-2.93-.52-4.37-.15-.81.41-.59.74-.72.43-.17.52.05.57.48.2,1.61.47,3.21.72,4.81.05.31-.01.74.52.62.48-.11.26-.48.27-.79.05-1.65-.52-3.23-.5-4.86,0-.27-.26-.69.3-.77.45-.07,1.09.06.76-.81-.3-.78-.85-.44-1.31-.34-.71.16-1.55.74-2.08.53-1.09-.43-1.07.26-1.28.9-.67-.51-1.35-.83-2.15-.28-.65.45-.99,1.07-1.04,1.99-.62-1.26-1.48-1.11-2.46-.87-1.67.4-3.18,1.51-5.04,1.16-.25-.05-.53.3-.65.74-.28,1.1-.19,2.2-.22,3.3,0,.3-.01.67-.3.74-.39.09-.38-.3-.44-.57-.17-.79-.65-1.47-.78-2.29-.11-.74-.58-1.06-1.4-1.02-.66.03-1.3.52-2.12-.1v4.32Zm26.91-85.95c0,.75.03,1.17,0,1.58-.08,1.03.3,1.48,1.41,1.4,1.69-.12,3.39-.13,5.08-.13,1.98,0,3.96.07,5.95.11.54.01,1.04-.04,1-.76-.09-1.48.15-2.95.24-4.42.03-.47.27-1.18-.69-1.05-.65.09-1.56-.38-1.55.94,0,1.12-.51,1.69-1.82,1.57-1.73-.15-3.48-.04-5.21-.04-1.97,0-2.03.01-2.37-1.8-.26-1.38-1.22-.53-1.82-.63-.79-.13-.51.7-.41.98.31.86.13,1.72.2,2.24Zm-.15,83.75c1.23-.02,1.84-.72,1.92-2.2.08-1.5-.53-2.35-1.89-2.52-.46-.06-.92-.06-1.1-.55-.1-.26-.09-.62.18-.8.42-.29.85-.24,1.21.16.19.21.49.29.66.14.15-.13.18-.45.16-.68-.04-.47-.27-.8-.74-1.03-.68-.33-1.33-.3-1.78.23-.59.7-.99,1.55-.61,2.5.36.89.91,1.61,2.06,1.55.42-.02.83.11.83.69,0,.5.04.97-.57,1.22-.54.22-.73-.2-1.04-.42-.19-.14-.07-.64-.39-.5-1.08.48-.98-.49-1.19-.97-.4-.91-.69-1.87-1.03-2.81-.14-.39-.09-.98-.72-.94-.55.04-.52.54-.58.95-.28,1.92-.57,3.84-.87,5.76-.05.32-.23.66.07.9.13.11.41.1.59.05.46-.14.28-.58.24-.84-.24-1.26.88-.77,1.36-1.05.62-.35.78.28.87.67.12.54.55,1.03.86.71.54-.57,1.03-.05,1.5-.2Zm5.93-62.69c.13.03.26.06.4.1.49-.41,1.29-.65,1.26-1.42-.13-3.96.28-7.9.29-11.86,0-.84-.45-.71-.93-.7-.52,0-1.05-.16-1.04.75.04,4.38.02,8.76.02,13.14Zm37.74,64.6c0,.63-.08,1.14.02,1.61.2.99.42,2.09,1.55,2.4.92.25,1.73-.29,2.1-1.12.82-1.87.84-3.8-.01-5.67-.23-.5-.64-.93-1.35-.89-.75.05-1.3.31-1.68.99-.5.88-.78,1.79-.62,2.68Zm-39.78-6.32c0-.4-.02-.73,0-1.06.01-.15.13-.29.18-.45.48-1.24.64-1.28,1.72-.49.16.12.3.28.53.09.25-.2.38-.46.3-.76-.12-.49-.3-1.02-.86-1.1-.63-.09-1.27-.17-1.83.42-1.12,1.19-1.51,4.33-.33,6.19.3.47.57,1.12,1.25,1.03.79-.11,1.46-.54,1.72-1.38.07-.23.02-.5.1-.72.11-.32.55-.67-.12-.84-.56-.15-.67.17-.69.66-.02.46-.39.76-.79.84-.5.1-.7-.33-.88-.72-.25-.57-.41-1.16-.31-1.72Zm3.22-74.37c-.7,0-1.4.03-2.1,0-.58-.03-.8.16-.81.76-.01.64.18.89.84.87,1.28-.04,2.55-.04,3.83,0,.63.02.87-.18.88-.84,0-.71-.32-.82-.91-.79-.57.03-1.15,0-1.73,0Zm.03-1.54c-.99,0-1.97,0-2.96,0-.36,0-.9-.07-.89.36,0,.2.42.69.99.67,1.97-.05,3.95-.02,5.92-.01.35,0,.64,0,.64-.49,0-.48-.25-.53-.62-.53-1.03,0-2.06,0-3.08,0Zm-.05,46.88c-.49.1-.74.34-.74.84,0,3.36,0,6.73,0,10.09.19,0,.37.01.56.02-.27-3.66.38-7.27.18-10.95Zm7.56-64.34c-.24-.27.24-.83-.33-.89-.45-.04-.43.44-.49.82-.25,1.5-.53,3-.84,4.49-.09.42-.34.83.34.87.47.03.99.17,1-.65.02-1.55-.16-3.11.32-4.66Zm-15.24,2.1c-.18.8.22,1.7.23,2.63,0,.66.4.58.82.59.61,0,.53-.43.46-.77-.32-1.66-.69-3.31-1-4.98-.06-.32-.07-.58-.48-.5-.43.09-.34.5-.26.7.32.71.2,1.45.23,2.33Zm11.98,7.92c.65,0,1.27-.04,1.88,0,.62.05.86-.14.85-.81,0-.65-.29-.68-.82-.73-1.06-.1-1.85.08-1.92,1.53Zm-10.64,0c.42-.1,1.19.39,1.18-.76-.01-.9-.53-.78-1.04-.73-.52.05-1.28-.37-1.26.77.01.91.53.73,1.12.72Zm7.21,44.44c-.38.25-.64.43-.91.59-.28.17-.55.37-.85.46-.48.15-.34.37-.12.6.14.14-.1.5.29.48.62-.04,1.67-1.34,1.6-2.13Zm-7.67,23.16c.7,1.19,1.4,2.04,2.68,2.49-.65-1.17-1.42-1.94-2.68-2.49Zm7.68-40.71c-.76.63-2.09.71-2.1,2.27.89-.79,2.08-.99,2.1-2.27Zm.24,12.44c-1.09.52-1.75,1.11-2.26,1.87.78-.44,1.87-.49,2.26-1.87Zm-.23-2c-.77.45-1.96.42-2.14,1.9.9-.68,1.67-1.12,2.14-1.9Zm-1.51,14.48c.64-.61,1.74-.64,1.56-1.96-.63.6-1.72.64-1.56,1.96Zm-.5-7.95c.72-.34,1.5-.59,1.99-1.29-.69.39-1.54.53-1.99,1.29Zm7.18-47.07c.29-.15.91.31.92-.39.01-.62-.54-.35-.84-.35-.3,0-.82-.27-.88.32-.07.66.47.36.8.42Zm-12.78,0c.28-.12.82.23.79-.4-.02-.48-.46-.37-.76-.35-.27.02-.7-.19-.73.35-.03.57.42.33.69.4Z" style="fill: #201b18;"/>
    <path d="m126.43,171.17c1.44-2.81,3.81-4.76,6.29-6.53,1.06-.76,2.08-1.5,2.82-2.58.13.12.22.16.23.22.11.43-.55.93-.07,1.26.55.37.88-.32,1.22-.58,1.57-1.25,3.09-2.56,4.61-3.88,2.38-2.06,5.29-3.27,7.94-4.9,2.04-1.25,4.15-2.39,6.16-3.72,2.52-1.67,5.43-2.55,8.17-3.78.18-.08.35-.2.46-.47-5.38.78-10.06,3.49-14.77,5.9-4.81,2.46-9.12,5.82-13.33,9.27,1.49-2.79,3.19-5.38,5.8-7.22.76-.53,1.31-1.25,1.99-1.86.27-.24.44-.52.58.13.08.37.42.31.71,0,.69-.75,1.1-1.64,1.21-2.61.07-.55.3-.77.74-1,5.39-2.78,10.86-5.4,16.67-7.17,3.66-1.11,7.37-2.04,10.94-3.41,2.49-.96,4.91-2.13,7.68-3.34-.84,1.45-1.36,2.74-1.96,3.99-.35.74-1.26.26-1.91.57-1.33.63-2.3,1.7-3.38,2.58-2.6,2.1-5.34,3.79-8.67,4.39-.3.06-.74-.05-.64.49.08.42.45.26.7.27.61.02,1.23,0,1.96,0-1.8,2.36-3.92,3.79-6.93,3.5-.32-.03-.93-.34-.99.33-.04.5.49.53.86.64.46.14.92.27,1.37.42.07.02.12.12.21.22-1.81.84-3.66,1.72-5.19,2.86-2.08,1.55-4.4,2.21-6.7,3.09-.58.22-1.34-.08-1.84.78,1.23.12,2.29-.71,3.55-.29-1.06,1.04-2.4,1.68-3.66,2.04-3.52.99-6.94,2.32-10.51,3.16-.65.15-1.32.24-1.93.24-2.71-.01-4.11,2.14-5.94,3.52-1.49,1.12-2.6,2.74-4.31,3.62-.04-.06-.1-.1-.15-.14Zm47.12-29.37c-.03-.1-.07-.21-.1-.31-1.41,0-2.74.48-4.06.98-.24.09-.34.27-.17.46.2.23.35.66.76.48,1.2-.52,2.38-1.08,3.57-1.62Z" style="fill: #201b18;"/>
    <path d="m81.93,85.95c-.07-.84,0-1.53-.22-2.1-.31-.83-2.75-1.57-3.37-.98-.57.55-.95,1.47-1.07,2.19-.27,1.61-1.55,1.42-2.52,1.68-.57.16-1.2.06-1.75.55.23-2,.33-4.01,1.32-5.76.84-1.49,1.85-2.9,2.83-4.31.54-.78,1.43-1.18,2.17-1.75,3.16-2.48,6.74-3.69,10.71-3.85.08,0,.18.02.25,0,2.92-1.5,6.22-1.4,9.33-2.02,2.15-.43,4.26-1.27,6.54-1.26,1.26,0,2.35-.95,3.61-1.29,4.06-1.09,7.57-3.25,10.82-5.87.3-.24.67-1.04,1.1-.49.35.45,1.03,1.19.04,1.87-2.54,1.74-4.52,4.26-7.5,5.4-.19.07-.37.2-.52.33-2.4,2.24-5.49,3.03-8.47,4.04-.94.32-1.74.8-2.58,1.26-.32.17-.63.41-.97.51-2.86.85-5.16,2.85-7.98,3.78-.25.08-.43.36-.64.56-1.03.94-1.89,2.05-3.13,2.78-1.04.6-1.46,1.76-1.95,2.81-.41.88-.96.91-1.2.03-.35-1.31-1.23-1.25-2.25-1.28-1.11-.03-1.45.8-1.62,1.52-.15.61-.33,1.08-.97,1.65Z" style="fill: #201b18;"/>
    <path d="m169.62,85.95c-.3-.73-.7-1.28-.74-1.86-.09-1.23-.83-1.32-1.77-1.3-.95.03-2-.15-1.98,1.31,0,.15.03.35-.19.4-.25.06-.45-.11-.49-.29-.49-2.07-2.32-3.09-3.61-4.5-.88-.96-2.34-1.37-3.42-2.18-2.74-2.05-6.06-2.97-9.01-4.64-2.05-1.16-4.43-1.72-6.68-2.5-.35-.12-.71-.24-.99-.43-3.5-2.46-7.4-4.36-10.38-7.56-.75-.81-.11-1.26.12-1.7.34-.65,1.01-.3,1.34.12,1.43,1.82,3.86,2.39,5.24,4.25.27.36.68.22,1,.35,2.55,1.02,5.29,1.61,7.66,3.07.36.22.72.11,1.08.12.66.03,1.46-.23,1.96.05,2.45,1.39,5.34.76,7.84,1.82.45.19.9.14,1.34.11,1.09-.06,2.11.06,3.05.69.25.17.54.31.9.33,4.55.21,8.57,1.89,12.19,4.58.94.7,1.44,1.77,2.16,2.65,1.77,2.18,2.58,4.72,3.04,7.42.1.58-.24.76-.59.46-.74-.62-1.56-.39-2.36-.44-.94-.05-1.7-.17-1.82-1.42-.07-.76-.79-1.39-1.24-2.01-.24-.34-1.49-.32-1.98,0-.59.38-1.62.65-1.46,1.77.05.37.12.79-.21,1.31Z" style="fill: #201b18;"/>
    <path d="m92.9,86.77c-.36-.04-.42-.23-.37-.37.46-1.47-.64-2.37-1.28-3.42-.24-.4-.76-.11-1.15-.17-.24-.03-.51.01-.65-.25-.18-.35.2-.44.34-.52,2.05-1.2,3.49-3.11,5.62-4.34,2.78-1.61,5.97-2.32,8.54-4.31.7-.54,1.68-.74,2.56-1.02,2.46-.78,4.96-1.43,6.88-3.32.28-.28.64-.58,1-.65,2.03-.37,3.24-1.98,4.71-3.15,1.08-.86,2.36-1.5,3.23-2.61.11-.14.43-.36.46-.09.07.57,1.13.48.77,1.21-.66,1.35-1.15,2.76-1.88,4.11-1.19,2.22-3.21,3.71-4.39,5.86-.32.58-.97.74-1.5,1.05-2.38,1.41-4.41,3.33-7.06,4.4-1.13.46-2.33,1.26-3.17,2.49-.67,1-1.93,1.59-2.92,2.38-.43.34-.58.05-.66-.3-.35-1.5-1.58-1.01-2.42-.9-.7.09-1.34.73-1.32,1.65.01.7,0,1.41,0,2.11,0,.34.04.65-.48.65-.49,0-.53-.25-.52-.62.01-.54,0-1.08,0-1.62,0-1.52-.55-2.23-1.76-2.25-1.73-.03-2.39.58-2.46,2.24-.03.57.13,1.15-.12,1.72Z" style="fill: #201b18;"/>
    <path d="m149.5,84.03c-.34-1.33-1.69-1.47-2.37-2.24-.75-.85-1.73-1.3-2.58-1.87-.87-.59-1.95-1.03-2.94-1.54-1.71-.89-3.38-1.79-4.45-3.49-.1-.16-.32-.25-.51-.33-1.85-.87-3.13-2.31-4.09-4.07-.02-.03,0-.1-.02-.12-1.96-1.68-2.85-4.04-4.1-6.19-.39-.67-.57-.9.29-1.15.29-.09.48-.51.75-.81,1.82,1.95,3.89,3.68,6.13,5.17,3.65,2.44,7.57,4.37,11.77,5.73,2.13.69,4.04,1.94,6.12,2.82,2.05.87,3.88,2.26,5.81,3.4,1.41.84,2.35,2.17,3.6,3.09-.15.43-.4.38-.57.36-1.25-.2-2.19.09-2.5,1.49-.08.35-.37.5-.76.49-.44-.01-.35-.32-.43-.59-.38-1.28-.95-1.58-2.5-1.39-.75.09-1.7,1.24-1.72,2.08-.01.8,0,1.6,0,2.4-.54,0-.54-.31-.49-.53.27-1.1-.54-1.97-.61-3.02-.03-.44-.45-1.06-1.28-.96-.98.11-2.09-.19-2.55,1.25Z" style="fill: #201b18;"/>
    <path d="m113.11,85.79c-.12-.92-.87-1.27-.73-2.11.06-.38-.4-.79-.81-.85-.69-.08-1.41-.1-2.1,0-.44.06-.72.44-.78.97-.13,1.01-.77,1.91-.64,3-.5-.87.04-2.04-.43-2.61-.46-.55-.75-1.65-2.11-1.42.74-.81.84-1.89,2.04-1.79,1.23-2.09,3.89-1.94,5.47-3.45,1.27-1.22,3.13-1.73,4.17-3.05,1.25-1.58,2.96-2.78,3.89-4.56.94-1.78,2.48-3.26,2.79-5.35.08-.54.45-.45.73-.34.42.16.77.36.71.98-.33,3.18-2.13,5.71-3.6,8.4-1.05,1.91-2.49,3.53-3.86,5.18-.6.72-1.25,1.47-1.94,2.11-.92.86-1.32,2.07-2.28,2.87-.54.45.02,1.2-.52,2.03Z" style="fill: #201b18;"/>
    <path d="m126.18,65.27c0,1.03,0,2.06,0,3.09,0,4.35,0,8.7,0,13.05,0,.61.16,1.17-.86,1.22-.69.03-1.38.56-1.22,1.53.18,1.05-1.23,1.52-.88,2.67-.5-.62-.33-1.27-.34-1.88-.03-1.77-1.74-2.94-3.25-2.08-.47.27-.73,1-.96,1.56-.12.31-.24.38-.51.35-.19-.02-.5.02-.48-.25.06-.67-.38-1.23-.69-1.6-.27-.32-1.14-.14-1.92-.2,2.19-2.87,4.85-5.16,6.6-8.2,1.7-2.97,3.73-5.76,4.17-9.31.12.02.24.03.35.05Z" style="fill: #201b18;"/>
    <path d="m121.61,54.46c.23-1.66.96-3.18,1.52-4.73.25-.69.1-1.03-.43-1.43-1.41-1.08-2.79-2.21-4.46-3.53,1.9,0,3.46-.08,5,.03,1.04.07,1.35-.43,1.58-1.27.44-1.66.94-3.3,1.68-4.91.54,1.7,1.1,3.39,1.59,5.1.22.78.56,1.13,1.45,1.08,1.57-.09,3.14-.02,5.02-.02-1.44,1.18-2.65,2.24-3.94,3.18-.86.63-1.27,1.14-.71,2.29.64,1.34.97,2.84,1.26,4.43-1.2-.96-2.44-1.89-3.6-2.9-.74-.63-1.33-.78-2.14-.07-1.17,1.03-2.44,1.94-3.67,2.9-.04-.05-.09-.1-.14-.14Z" style="fill: #201b18;"/>
    <path d="m147.12,82.43c-2.85.37-3.24,2.25-3.33,4.4-.44-.64-.2-1.3-.31-1.89-.16-.83-.36-1.82-1.22-2.06-.96-.26-2.02-.25-2.77.78-.47.65-.01,1.38-.34,2-.54-.13-.36-.56-.4-.91-.11-1.04-.48-1.94-1.21-2.72-1.86-1.99-3.87-3.89-5.46-6.08-1.28-1.76-2.31-3.74-3.33-5.7-.8-1.53-1.12-3.17-1.65-4.76-.12-.37-.11-.74.43-.97.58-.24.61.14.77.44.15.28.41.48.51.83.47,1.61,1.31,3,2.63,4.08.27.23.48.51.65.87.86,1.88,2.38,3.11,4.1,4.22.98.64,1.74,1.64,2.71,2.37,1.53,1.15,3.18,2.05,4.94,2.81.72.31,1.56.78,2.12,1.48.25.31.44.68,1.14.81Z" style="fill: #201b18;"/>
    <path d="m133.9,87.13c-.48-.78-.43-1.28-.33-1.68.33-1.23-1.1-1.55-1.25-2.57-.05-.37-2.16.17-2.57.45-1.39.95-.73,2.47-1.03,3.77-.56-.22-.45-.61-.4-.86.29-1.41-.59-2.38-1.29-3.39-.21-.3-.31-.55-.31-.87,0-5.05,0-10.11,0-15.16,0-.11.07-.23.22-.65.04,2.65,1.51,4.43,2.5,6.38.96,1.88,2.09,3.69,3.58,5.29,1.36,1.46,2.82,2.89,4.09,4.68-3.38-.22-2.93,2.31-3.22,4.61Z" style="fill: #201b18;"/>
    <path d="m169.49,173.27c.42-1.17-.36-1.88-.61-2.74-.12-.4-.69-.86.11-1.35.68-.42,1.36-.58,1.92-.15.87.66,1.6.77,2.68.41.93-.32,2.07-.24,3.07-.06.93.18,1.3,1.27,1.55,1.99.25.7.48,1.78-.38,2.52-.46.39-.2.67.24.91.55.31,1.02.92.89,1.44-.18.7-.99.49-1.59.54-1.24.11-2.33-.77-3.6-.55-.22.04-.49-.27-.31-.63.13-.26.27-.52.33-.8.3-1.44.04-1.78-1.42-1.76-.89.02-1.79-.15-2.87.22Z" style="fill: #201b18;"/>
    <path d="m189.77,162.85c-2.14.04-2.52.34-3.04-2.14-.15-.73-.64-1.01-1.35-.6-1.31.75-2.57,1.35-3.29-.71-.1-.28-.43-.49-.7-.69-.79-.59-.37-1.2.16-1.44.67-.31,1.53-.68,2.24-.33.91.45,1.64.03,2.1-.47,1.02-1.11,2.25-1.07,3.38-.65,1.31.49,2.03,2.08,1.67,3.56-.26,1.1.09,1.3,1.03,1.23.29-.02.73-.14.74.38,0,.46.19.96-.39,1.31-.85.52-1.75.63-2.54.54Z" style="fill: #201b18;"/>
    <path d="m184.14,170.37c-.53-.05-1.06-.09-1.59-.14-1.13-.11-1.78-.59-1.53-1.87.13-.67-.33-.97-.92-1.02-.49-.04-1-.04-1.48.02-.56.07-1.21.81-1.57.4-.45-.5-.55-1.35-.71-2.07-.06-.28-.18-.53-.25-.79-.11-.45-1.01-.78-.29-1.34.64-.5,1.46-.81,2.14-.18.95.87,1.77.6,2.73.08,1.29-.7,2.66-.46,3.71.54,1.11,1.06,1.22,1.67.51,3.34-.1.23-.12.36.09.5.2.14.4.39.61.4.85.03.68,1.02,1.25,1.28-.51.38-1.03.76-1.69.82-.33.03-.66,0-.99,0,0,.01,0,.02,0,.04Z" style="fill: #201b18;"/>
    <path d="m196.25,137.3c-.63.05-.89-.44-1.23-.77-1.3-1.27-2.3-1.14-2.91.52-.34.91-.61.87-1.2.27-.38-.38-.88-.6-1.45-.57-.94.05-1.33-.74-1.82-1.31-.33-.38.42-1.33,1.09-1.4.33-.04.66-.03.99,0,.55.05.74-.1.8-.72.17-1.63,1.63-2.51,3.22-2.04.61.18,1.24.34,1.83.58.33.13.78.32.88.6.43,1.1,1.06,1.75,2.35,1.58.33-.04.7.26,1.05.41-.55.41-.21,1.36-.72,1.59-.96.42-1.9.9-2.88,1.29Z" style="fill: #201b18;"/>
    <path d="m193.32,154.64c-1.36.26-1.73-.9-2.03-1.76-.33-.96-.75-.79-1.34-.46-.69.38-1.24,1.36-2.07,1.06-.67-.25-1.18-1-1.7-1.59-.38-.44-1.25-.72-1.03-1.38.27-.82,1.16-.59,1.84-.58.82,0,1.42-.19,1.93-.97.72-1.09,2.48-1.18,3.77-.75,1.61.53,2.23,1.45,2.01,3.07-.09.63.27.93.88.87.49-.05.85.12,1.22.44.18.16.63.03.61.45-.01.36-.4.75-.58.73-1.3-.2-2.23,1.01-3.52.86Z" style="fill: #201b18;"/>
    <path d="m190.93,122.54c1.08.49,2.56.54,3.21,1.9.27.56.47.67.99.39.16-.08.41-.05.61,0,.56.12,1.36-.37,1.66.31.35.78-.44,1.25-.9,1.73-.36.38-.89.62-1.2,1.04-.33.44-.6.45-1.03.22-.61-.33-1.29-.54-1.85-.93-.95-.66-1.49-.25-1.66.66-.25,1.35-.63,2-2.05,1.02-.46-.31-1.18-.04-1.8-.19-.64-.16-1.31-.35-1.32-.99,0-.65.65-1.22,1.24-1.32.92-.15,1.17-.51,1.21-1.41.04-1.07,1.74-2.44,2.89-2.42Z" style="fill: #201b18;"/>
    <path d="m193.73,140c1.04-.09,2-.07,2.74.83.27.33.54.61.47,1.07-.15,1.03.28,1.41,1.33,1.35.34-.02,1.03-.5,1.16.39.1.74-.27,1.25-.88,1.45-.84.28-1.69.5-2.44,1-.34.23-.53-.08-.73-.27-.59-.58-1.2-1.14-1.75-1.76-.53-.61-.89-.36-1.28.13-1.39,1.77-1.39,1.76-3.03.34-.3-.26-.68-.43-1.02-.65-.4-.25-1.17-.56-.95-.91.26-.41.7-1.02,1.42-.99.21,0,.42-.03.62,0,.75.13,1.24-.14,1.55-.84.56-1.28,1.69-1.26,2.8-1.14Z" style="fill: #201b18;"/>
    <path d="m187.15,115.14c.96-.23,1.89.11,2.6,1.09.52.72,1.19-.08,1.79.13.54.19,1.36-.34,1.64.32.32.76-.07,1.48-.71,2.07-.91.84-1.8,1.43-2.98.5-.15-.12-.34-.21-.53-.28-1.14-.44-1.74-.05-1.7,1.16.03.93.03,1.52-1.25,1.05-.73-.27-1.64-.01-2.46-.1-.57-.06-1.27-.08-1.51-.78-.24-.7.51-.84.83-1.2.23-.27.63-.39.9-.63.21-.19.5-.31.29-.78-.51-1.15.36-2.44,1.64-2.53.41-.03.83,0,1.44,0Z" style="fill: #201b18;"/>
    <path d="m179.05,104.67c-.09-.05-.25-.24-.28-.07-.29,1.66-1.51,1.03-2.44.97-.66-.04-1.3-.26-2.17-.45.44.71.81,1.19,1.06,1.72.23.5.2,1.02-.54,1.06-.99.05-1.88.43-2.8.7-.6.18-1.29.24-1.64-.44-.31-.61-.33-1.22.4-1.66.35-.21.51-.49.19-1.01-.77-1.26-.04-2.67,1.38-3.07,1.06-.3,2.01-.46,3.02.21.24.16.96.7,1.26-.36.09-.33,1.21-1.07,2.05-.55.74.46.91,1.16.61,2-.11.29-.41.61-.14.98l.03-.03Z" style="fill: #201b18;"/>
    <path d="m179.63,114.09c-.66,0-1.33.04-1.99-.01-.34-.03-.76-.04-.84-.54-.06-.42.08-.78.44-.93,1.14-.49,1.2-1.09.61-2.17-.51-.94.4-2.06,1.53-2.1.99-.04,2.19-.36,2.94.07,1.33.77,2.42.29,3.65.04.84-.17,1.4.66,1.11,1.47-.59,1.66-1.84,2.35-3.53,1.87-.58-.16-1.15-.32-1.6.13-.46.45-.04.89.16,1.33.27.59.14.93-.61.88-.62-.05-1.24,0-1.86,0,0,0,0-.01,0-.02Z" style="fill: #201b18;"/>
    <path d="m167.4,103.14c-1.14.05-2.11.32-3.05.69-.7.28-1.34.06-1.59-.47-.23-.5-.48-1.3.42-1.68.37-.16.75-.47.2-.78-.89-.5-1.56-1.26-1.17-2.17.42-.97,1.61-1.09,2.6-1.27.44-.08.92.07,1.36,0,.68-.11,1.53.57,2.05-.6.15-.35,1.26-.16,1.89-.57.27-.18.5.31.5.66,0,.87-.03,1.74,0,2.61.01.5-.37.54-.68.73-.32.2-.63.15-.95.16-2.9.06-2.98.18-1.57,2.68Z" style="fill: #201b18;"/>
    <path d="m91.63,98.03c-.87,1.98-2.33,3.36-3.91,4.36-1.78,1.13-3.57,2.43-5.76,2.85-.35.07-.7.15-1.07.19-.56.05-.68-.27-.48-.68,1.9-3.81,7.03-6.88,11.22-6.72Z" style="fill: #201b18;"/>
    <path d="m130.21,209.12c-2.34-.01-3.49-.66-4.09-2.34-.61-1.69.31-3.65,2.06-4.15,1.46-.42,3-.53,4.44.06,1.67.69,2.28,2.1,1.94,4.04-.22,1.21-1.71,2.32-3.23,2.39-.37.02-.74,0-1.12,0Zm.03-1.26c1.93.15,2.48-.68,2.57-2.26.08-1.38-.98-2.21-2.61-2.22-1.4,0-2.38.99-2.37,2.39.01,1.41.8,2.09,2.41,2.09Z" style="fill: #201b18;"/>
    <path d="m148.35,202.35c.66.03,1.34-.05,1.97.11,1.7.44,2.57,1.65,2.53,3.34-.04,1.68-.75,2.62-2.57,3.07-1.68.41-3.4.6-4.9-.61-1.11-.89-1.53-2.55-1.01-3.88.42-1.1,1.82-1.99,3.12-2,.29,0,.58,0,.87,0,0-.01,0-.02,0-.04Zm2.6,3.3c.01-1.54-.83-2.27-2.61-2.28-1.3,0-2.36,1.01-2.36,2.25,0,1.38,1.07,2.46,2.45,2.48,1.54.01,2.51-.92,2.52-2.45Z" style="fill: #201b18;"/>
    <path d="m108.73,209.02c1.07-2.12,2.06-4.13,3.09-6.13.34-.66,2.2-.8,2.51-.15,1.02,2.13,2.36,4.09,3.23,6.32-1.07.07-2.14.31-2.48-1.14-.08-.35-.52-.33-.86-.32-.74,0-1.49,0-2.23,0-.32,0-.71-.09-.82.35-.34,1.3-1.29,1.26-2.43,1.06Zm5.55-2.69c-.49-.82-.65-1.6-1.27-2.21-.36.76-.68,1.45-1.05,2.21h2.32Z" style="fill: #201b18;"/>
    <path d="m190.17,141.32c-1.67-.9-.82-2.73-1.78-3.95,1.17-.31,2.01,0,2.69.84.55.69.9.74,1.29-.23.89-2.2.94-2.17,2.74-.63.73.63,1.53.62,2.33.11.17-.11.31-.26.49-.34.47-.21,1.03-.69,1.44-.24.35.39-.21.87-.5,1.13-.67.62-.19,1.69-1.05,2.26-.48.32-.68.48-1.19.03-1.94-1.7-5.13-1.11-6.45,1.02Z" style="fill: #201b18;"/>
    <path d="m181.95,112.15c1.5-.04,2.56.71,3.74.26,1.16-.44,1.27-1.75,2.31-2.5-.26,1.44.64,2.51.55,3.82-.06.8-.27,1-.99.91-.33-.04-.66,0-.99,0-2.34,0-3.21.8-3.36,3.17-2.1-.09-2.8-2.23-4.41-3.09,1.1.12,2.23-.51,3.3.29.41.3.61-.11.63-.41.07-.78.09-1.57-.78-2.44Z" style="fill: #201b18;"/>
    <path d="m187.29,144.22c1.27.01,1.65.86,2.21,1.39,1.45,1.38,1.65,1.44,2.76-.28.67-1.04,1.14-.98,1.78-.09.05.07.13.11.17.18.84,1.22,1.84,1.6,3.17.7.41-.27.89-.57,1.48-.35-.81,1.09-1.61,2.15-2.23,3.34-.5.96-.95.95-1.63.06-1.16-1.52-3.88-2.52-6-.99-.83.6-1,.17-1.02-.58-.03-1.09.22-2.22-.7-3.37Z" style="fill: #201b18;"/>
    <path d="m102.14,205.46c.09-.87-.47-2.28.19-2.92.71-.68,2.12-.18,3.23-.21.69-.02,1.37.04,2.04.28.87.32,1.35.81,1.34,1.78-.01.95-.49,1.57-1.33,1.85-.64.21-1.36.41-2.02.33-1.34-.15-1.92.26-1.65,1.64.14.71-.19.88-.88.9-.8.03-1-.25-.95-.99.06-.82.01-1.66.01-2.67Zm2.73-.06c.58-.04.91-.04,1.24-.08.54-.08.88-.29.87-.95-.02-.74-.45-.75-.98-.74-.45.01-.9.03-1.35,0-.54-.05-.65.17-.71.69-.12,1.01.35,1.21.94,1.09Z" style="fill: #201b18;"/>
    <path d="m179.02,104.71c.89-.13.48-1.09,1.04-1.56.52,1.23,1.3,2.28,2,3.38.46.71.15,1.24-.7,1.26-.7.02-1.41-.02-2.11.01-1.13.05-1.92.9-1.96,2.05-.01.35.22.89-.19,1-.48.13-1.18.31-1.53-.12-.86-1.02-2.22-.83-3.3-1.56.8-.42,1.55-.76,2.45-.76,1.55,0,1.58-.05,1.09-1.4-.12-.34-.28-.67-.47-1.11,1,.33,1.97.28,2.93.31.91.03,1.57-.06.79-1.16-.06-.08,0-.24-.01-.37,0,0-.03.04-.03.04Z" style="fill: #201b18;"/>
    <path d="m191.3,163.58c-1.4.78-2.72,1.52-4.05,2.25-1.04.57-1.27.37-1.5-.76-.21-1.08-1.11-1.71-2.03-2.14-1.03-.48-2.2-.56-3.23-.04-1.05.53-.99-.05-.94-.75.07-1.05.98-1.78,1.06-2.86.02-.32.44-.07.7.06.77.42.74,1.31,1.16,1.95.43.66.72.65,1.24.27.3-.22.6-.48.94-.6.72-.26,1.57-1.02,1.69.69.09,1.32,1.12,1.92,2.51,1.92.82,0,1.64,0,2.46,0Z" style="fill: #201b18;"/>
    <path d="m184.96,156.54c-.7-1.92.4-3.7-.67-5.31.09-.06.18-.12.27-.19.93.94,1.95,1.81,2.75,2.85.43.57.63.62,1.09.18.09-.08.21-.13.32-.19q1.92-1.11,3.06.93c.31.55.39.85,1.31.51.88-.33,1.92-.78,2.61-1.01-1.2,1.49-2.4,2.97-3.76,4.65-.36-1.71-2.02-3.7-2.9-3.82-1.56-.22-2.98.04-4.08,1.39Z" style="fill: #201b18;"/>
    <path d="m78.8,174.83c-4.53,1.58-7.85-.36-11.03-2.91,2.1.03,4.19-.04,6.29.03,2.28.07,3.23,1.59,4.74,2.88Z" style="fill: #201b18;"/>
    <path d="m65.94,160.19c-.04.38-.14.46-.48.33-1.91-.74-3.94-1.2-5.62-2.44-1.31-.97-1.83-2.6-2.82-3.84-.08-.1-.06-.36.02-.46.18-.22.48-.17.67-.04,1.3.87,2.81,1.37,4.25,1.84,2.2.71,2.87,2.52,3.79,4.23.08.14.14.29.19.39Z" style="fill: #201b18;"/>
    <path d="m183.9,121.59c.82.07,1.64-.16,2.47.27,1.02.54,1.6.14,1.61-1,0-.29.02-.58,0-.87-.06-.72.35-.74.84-.55.34.13.66.34.97.54.87.59,1.66.58,2.39-.22.58-.64,1.18-1.27,1.93-1.83-.58,1.64-.3,3.3-.39,4.99-.79-.41-1.62-.5-2.39-.77-1.3-.45-2.59.37-3.49,1.9-.64,1.09-.97,1.09-1.71.08-.34-.46-.79-.85-1.22-1.23-.39-.35-.83-.64-1.25-.96.08-.11.15-.22.23-.33Z" style="fill: #201b18;"/>
    <path d="m173.76,101.35c-3.44.98-4.2,2.02-3.43,4.77-2.09.13-3.81-.98-5.85-1.67,1.22-.82,2.66-.65,3.87-1.16-.08-.54-.57-.72-.82-1.08-.19-.26-.49-.56-.34-.88.13-.28.51-.39.85-.39.7,0,1.41-.05,2.11.01.79.07.99-.26.96-.99-.03-.71-.15-1.46.31-2.23.25,1.6,2.16,2.01,2.35,3.61Z" style="fill: #201b18;"/>
    <path d="m189.92,133.05c-1.22-1.13-1.73-2.75-3.06-3.7,1.1.15,2.2.3,3.31.44.51.07.76-.02.83-.68.19-1.72.45-1.86,1.95-1.03,1.31.72,2.55,1.66,3.5-.42.09-.21.33-.38.54-.49.16-.09.42-.13.58-.06.23.1.17.36.07.53-.49.83-.65,1.73-.77,2.69-.11.87-.78,1.2-1.76.84-.91-.33-1.78-.83-2.91-.42-1.16.42-1.97,1.01-2.28,2.3Z" style="fill: #201b18;"/>
    <path d="m136.16,205.74c0-.91,0-1.82,0-2.72,0-.33-.04-.71.46-.69,1.67.08,3.36-.24,5,.3.88.28,1.4.81,1.39,1.75,0,.98-.55,1.64-1.46,1.9-.69.2-1.45.38-2.15.3-1.33-.15-1.92.25-1.65,1.63.13.67-.12.94-.85.91-.58-.03-.8-.18-.77-.78.05-.86.01-1.73.01-2.6Zm3.3-2.11c-.49,0-.86.01-1.23,0-.54-.02-.49.36-.44.67.05.36-.3.95.3,1.03.85.11,1.71.12,2.55-.22.49-.2.37-.6.37-.94.01-.41-.33-.55-.68-.57-.33-.02-.66.02-.88.03Z" style="fill: #201b18;"/>
    <path d="m55.15,140.08c1.44,1.38,2.71,2.64,4.18,3.71,1,.73,1.49,1.98,1.63,3.27.02.2.01.43.1.6.19.39.67.84.29,1.2-.38.36-.91-.04-1.33-.25-3.24-1.57-5.39-5.21-4.86-8.53Z" style="fill: #201b18;"/>
    <path d="m67.6,141.16c.31,3.86-1.85,6.4-5.01,7.46-.77.26-.85-.5-.83-.82.18-2.93,1.83-4.79,4.47-5.88.44-.18.84-.46,1.37-.76Z" style="fill: #201b18;"/>
    <path d="m66.55,160.58c-.32-1.19-1.02-2.24-.9-3.57.09-1.02.43-1.95,1.25-2.39,1.06-.58,1.78-1.38,2.4-2.35.15-.23.28-.38.57-.35.39.04.24.34.3.55.34,1.2.31,2.33-.18,3.55-.73,1.82-1.3,3.68-3.44,4.56Z" style="fill: #201b18;"/>
    <path d="m107.22,86.39c.02,1.01.05,1.91-.85,2.77-.57.55-.1,1.74-.19,2.64-.03.37.3.98-.53.95-.65-.02-.65-.44-.7-.93-.14-1.29-.21-2.6-1.31-3.57-.36-.32-.14-3.29.29-3.64.46-.37.22-1.22,1.02-1.32,1.13-.14,2.27.82,2.28,1.97,0,.37,0,.75,0,1.12Z" style="fill: #201b18;"/>
    <path d="m74.75,171.04c-.96-.96-1.78-1.94-1.97-3.38-.09-.64-.14-1.18.18-1.74.68-1.19,1.15-2.49,1.94-3.63.39-.56.59-.52.89.07.98,1.97,1.23,3.94.37,6.04-.38.93-.6,1.92-1.4,2.63Z" style="fill: #201b18;"/>
    <path d="m55.65,133.83c.08,0,.21-.02.23.02.8,1.74,2.6,2.52,3.78,3.89.21.25.5.52.54.81.21,1.45.97,2.82.72,4.38-3.75-1.31-6.05-5.09-5.27-9.09Z" style="fill: #201b18;"/>
    <path d="m62.09,130.86c-2.84-2.01-4.5-6.63-2.11-9.87,2.94,5.36,3.25,6.84,2.11,9.87Z" style="fill: #201b18;"/>
    <path d="m129.35,86.56c-.02-1.11-.14-2.06.79-2.83.72-.59.98-.57,1.75.07,1.2.99,1.18,2.12,1.16,3.4-.01.63,0,1.18-.74,1.47-.45.17-.6.66-.49,1.15.18.85-.49,1.55-.37,2.4.05.32-.26.38-.51.4-.34.03-.56-.1-.56-.48,0-.5-.03-.99,0-1.48.07-.83-.03-1.57-.71-2.15-.71-.59-.14-1.4-.32-1.95Z" style="fill: #201b18;"/>
    <path d="m88.35,86.42c-.06-.98-.19-1.93.75-2.68.76-.61,1.02-.36,1.8.2,1.21.87,1.08,1.96,1.09,3.11,0,.69.09,1.37-.79,1.69-.42.15-.45.62-.43,1.06.03.62.07,1.24,0,1.85-.07.52-.42.84-1.01.85-.76,0-.41-.56-.46-.89-.16-1.12.46-2.4-.91-3.29-.3-.19-.04-1.25-.04-1.9Z" style="fill: #201b18;"/>
    <path d="m122.52,86.64c.02,1.02.11,2-.83,2.83-.63.55-.16,1.5-.26,2.27-.05.37.17.89-.52.89-.7,0-.58-.54-.5-.88.23-1.04-.48-1.86-.54-2.83-.01-.17-.06-.37-.25-.36-1.23.05-1.04-.85-.96-1.54.07-.61-.49-1.41.46-1.83.43-.19.29-.72.47-1.07.35-.68.78-1.08,1.45-.78.71.31,1.45.74,1.48,1.69.02.54,0,1.08,0,1.61Z" style="fill: #201b18;"/>
    <path d="m69.94,165.74c-2.39.42-4.06-.66-5.91-1.31-2.1-.75-3.19-2.13-3.91-4.03.44-.17.83.22,1.28.34.93.24,1.79.68,2.8.65,1-.02,1.79.62,2.58,1.14,1.22.8,1.91,2.09,3.15,3.21Z" style="fill: #201b18;"/>
    <path d="m145.88,92.75c.29-1.68-.03-3.13-1.08-4.4-.36-.44-.18-3.19.16-3.81.43-.79.91-1.63,1.94-1.2.93.39,1.53,1.16,1.39,2.33-.14,1.21.32,2.48-.91,3.52-.38.32-.22,1.43-.12,2.15.15,1.15-.5,1.32-1.38,1.41Z" style="fill: #201b18;"/>
    <path d="m63.11,165.94c1.54.85,2.95.52,4.3.67,1.55.17,2.98.62,4.15,1.88.63.68,1.4,1.22,1.83,2.08-3.12.67-7.36-.63-10.28-4.63Z" style="fill: #201b18;"/>
    <path d="m80.09,175.58c-.62-.76-1.12-1.38-1.63-1.99-1.35-1.64-1.34-4.14,0-5.75.33-.4.78-.66.93-1.25.15-.55.48-.08.68.1,1.05.96,1.65,4.28,1.01,5.63-.47.99-1.04,1.94-.99,3.26Z" style="fill: #201b18;"/>
    <path d="m61.56,136.37c.59-4.16,3.51-5.69,7.28-6.4-1.01,4.46-3.69,5.87-7.28,6.4Z" style="fill: #201b18;"/>
    <path d="m117.83,86.59c-.13.96.27,1.72-.91,2.02-.36.09-.73,1.43-.81,2.32-.05.52.54,1.53-.51,1.51-.94-.02-.41-.99-.42-1.48,0-.99-.21-1.82-.95-2.49-.09-.08-.25-.17-.25-.26-.09-1.45-.28-2.95.59-4.24.68-1.01,1.62-.91,2.23.11.53.88,1.26,1.68,1.03,2.52Z" style="fill: #201b18;"/>
    <path d="m174.05,86.51c.08.96-.2,1.62-.66,2.41-.49.84-1.16,1.84-1.07,3,.02.3.17.71-.39.69-.48-.01-.47-.36-.47-.7,0-.54,0-1.07,0-1.61,0-.6.01-1.1-.59-1.59-.93-.74-.37-1.91-.48-2.89-.1-.87-.04-1.63.87-2.2.7-.44,1.28-.35,1.87.26.78.8,1.17,1.62.92,2.63Z" style="fill: #201b18;"/>
    <path d="m163.58,86.36c-.03.88.15,1.74-.65,2.53-.68.68-.38,1.78-.42,2.71-.02.4.22.98-.53,1.01-.75.03-.66-.56-.56-.95.25-1.03-.52-1.83-.53-2.79,0-.08-.03-.21-.06-.22-1.82-.48-.62-1.92-.91-2.88-.3-1,.92-1.43,1.11-2.33.05-.22,1.01-.28,1.62.12,1.09.72,1.01,1.73.94,2.79Z" style="fill: #201b18;"/>
    <path d="m156.18,92.72c0-.61-.02-1.18,0-1.75.03-.8.06-1.57-.73-2.08-.22-.14-.3-.38-.3-.64,0-1.16-.04-2.31.01-3.47.04-.75.56-1.27,1.23-1.43.5-.12.96-.19,1.41.6.69,1.19,1.2,2.29,1.03,3.66-.03.24.1.58-.15.68-1.64.65-1.58,2.07-1.52,3.43.03.73-.33.9-1,1Z" style="fill: #201b18;"/>
    <path d="m143.01,86.65c.14.99-.22,2-.88,3.03-.33.51-.14,1.36-.14,2.05,0,.44,0,.76-.62.79-.66.03-.6-.33-.62-.76-.06-1.02.34-2.13-.86-2.91-.3-.2-.11-1.16-.13-1.78-.02-.62,0-1.24,0-1.85,0-1.33.42-1.88,1.47-1.92,1.07-.04,1.65.52,1.78,1.79.04.45,0,.91,0,1.57Z" style="fill: #201b18;"/>
    <path d="m57.08,127.81c2.44,2.43,4.72,4.76,3.76,8.48-4.26-.99-4.62-5.4-3.76-8.48Z" style="fill: #201b18;"/>
    <path d="m56.15,147.65c1.13,1.3,2.75,1.61,4.19,2.28,1.55.72,2.33,2.05,2.58,3.69.06.4.2.77.27,1.16-2.76.41-6.14-2.92-7.04-7.13Z" style="fill: #201b18;"/>
    <path d="m70.97,125.19c-1.02,1.57-1.6,3.38-3.73,3.89-.96.23-1.86.71-2.79,1.07-.47.19-.98.31-1.36-.12-.35-.39-.15-.84.09-1.24.96-1.66,2.48-2.62,4.22-3.21,1.09-.36,2.22-.78,3.57-.4Z" style="fill: #201b18;"/>
    <path d="m81.42,86.85c.03.82.11,1.86-.93,2.74-.49.42-.1,1.42-.15,2.15-.03.34.15.76-.49.76-.62,0-.52-.41-.5-.76.05-1.41-.59-2.46-1.42-3.58-.44-.59-.25-1.78-.09-2.65.14-.72.61-1.39,1.03-2.02.29-.44.94-.31,1.24-.14.57.31,1.25.68,1.31,1.48.04.58,0,1.16,0,2.02Z" style="fill: #201b18;"/>
    <path d="m68.21,146.31c-.15,1.49.14,2.69-.17,3.87-.54,2.04-2.11,3.24-3.67,4.44-.54.41-.65,0-.67-.39-.04-1.2-.06-2.39-.04-3.59,0-.27.12-.66.32-.78,1.52-.9,2.54-2.41,4.24-3.55Z" style="fill: #201b18;"/>
    <path d="m62.33,141.97c-.85.01-1.12-1.11-.81-1.95.96-2.55,3.27-3.5,5.42-4.66.22-.12.49-.22.66.03.1.14.14.44.05.58-.65,1.13-.74,2.52-1.38,3.55-.51.83-1.52,1.56-2.58,1.96-.52.19-1.04.38-1.36.49Z" style="fill: #201b18;"/>
    <path d="m72.36,113.61c2.78-2.44,5.94-3.55,9.6-2.64-2.65,3.26-5.24,3.96-9.6,2.64Z" style="fill: #201b18;"/>
    <path d="m61.93,119.23c-.47-1.1.73-1.85,1.17-2.86.26-.6.64-.19.8.13.6,1.14,1.2,2.29,1.72,3.48.35.81-.69,4.16-1.35,4.68-.39.31-.62.13-.77-.22-.71-1.59-1.61-3.13-1.57-5.21Z" style="fill: #201b18;"/>
    <path d="m137.77,86.54c-.04,1.18.26,2.39-1.05,3.27-.56.38-.11,1.4-.2,2.12-.03.22.08.52-.29.56-.33.04-.68-.14-.65-.42.24-2.43-1.63-4.57-.96-7.01.19-.69.05-1.81,1.37-1.77,1.27.03,1.76.46,1.77,1.76,0,.5,0,.99,0,1.49Z" style="fill: #201b18;"/>
    <path d="m96.72,86.55c-.02,1.15.24,2.32-.99,3.2-.6.43-.12,1.4-.23,2.12-.04.25.14.62-.35.63-.34.01-.65-.17-.61-.46.34-2.36-1.55-4.35-1.05-6.77.25-1.22.65-1.95,1.62-1.98,1.07-.03,1.63.43,1.61,1.52,0,.58,0,1.16,0,1.73Z" style="fill: #201b18;"/>
    <path d="m72.91,160.08c0,2.29-.98,3.92-2.12,5.48-.13.18-.48.31-.48.23-.06-1.14-1.4-1.55-1.44-2.74-.04-1.06.27-2.04.88-2.71.82-.91,1.41-1.88,1.81-3,.06-.17.08-.45.35-.43.28.02.46.26.47.48.08,1,.67,1.92.53,2.7Z" style="fill: #201b18;"/>
    <path d="m166.79,92.69c-.06-1.61-.02-3.25-1.64-4.3.93-.14,1.08-.58.52-1.2-1.03-1.14-.08-2.27.07-3.38.09-.67,1.79-.72,2.17-.12,1.12,1.79,1.52,3.62.18,5.47-.68.94-.87,1.96-.82,3.07,0,.2-.12.29-.47.46Z" style="fill: #201b18;"/>
    <path d="m77.56,115.19c-1.01,2.64-3.59,2.7-5.57,3.67-.91.45-1.93.21-2.91.23-.68.01-.67-.44-.38-.82,1.03-1.32,2.2-2.36,3.97-2.69,1.6-.3,3.18-.61,4.89-.39Z" style="fill: #201b18;"/>
    <path d="m78.37,100.74c-.1,3.31.05,6.62-3.36,8.61-1.53-2.89.25-7.58,3.36-8.61Z" style="fill: #201b18;"/>
    <path d="m110.61,92.52c.17-1.52-.75-2.54-1.4-3.71-.86-1.56-.4-3.25.04-4.84.16-.59.84-.65,1.45-.68.58-.03,1.06.2,1.17.69.4,1.83,1.35,3.71-.41,5.4-.89.85-.34,2.09-.85,3.15Z" style="fill: #201b18;"/>
    <path d="m85.05,92.77c-.6-.57-.5-.93-.46-1.22.17-1.32-.21-2.33-1.38-3.07-.57-.36-.58-2.48-.05-3,.3-.29.43-.58.4-.97-.04-.67.25-1.12.94-1.2.68-.08,1.22.01,1.58.78.89,1.88.47,3.64-.33,5.39-.44.95-.84,1.92-.71,3.29Z" style="fill: #201b18;"/>
    <path d="m68.19,109.86c-.28,2.32.83,4.34.48,6.49-.05.28.08.62-.05.84-.44.76-.62,2.16-1.5,2.03-.81-.12-1.24-1.5-1.37-2.37-.41-2.61-.03-5.09,2.44-7Z" style="fill: #201b18;"/>
    <path d="m65.3,124.3c.07-.8.64-1.25,1.22-1.66.23-.16.56-.23.72-.44,1.09-1.47,2.48-2.16,4.34-1.86.73.12,1.33-.64,2.11-.44-.71,2.86-3.94,4.55-8.39,4.41Z" style="fill: #201b18;"/>
    <path d="m73.02,105.61c-.48,1.46.27,2.56.38,3.77.08.78-.07,1.48-.56,2.04-.75.86-1.12,2-2.09,2.68-1.75-2.54-.75-6.67,2.27-8.49Z" style="fill: #201b18;"/>
    <path d="m86.67,106.64c-5,3.18-6.41,3.63-9.67,2.29.44-.62.93-1.09,1.7-1.26.31-.06.62-.21.87-.4,1.44-1.14,2.93-1.41,4.7-.68.69.29,1.59.05,2.4.05Z" style="fill: #201b18;"/>
    <path d="m121.76,209.09c-.86-.13-2.26.49-2.87-.24-.51-.62-.16-1.96-.18-2.99-.01-.82.02-1.65-.01-2.47-.03-.65.02-1.05.89-1.06.88,0,1.02.33.99,1.08-.05,1.24.02,2.48-.03,3.71-.02.66.21.86.85.83.95-.05,1.9-.01,2.85-.01.4,0,.82-.09.85.57.03.68-.39.59-.8.59-.78,0-1.57,0-2.54,0Z" style="fill: #201b18;"/>
    <path d="m101.91,85.8c.17,1.61.02,2.84-.95,3.92-.53.59-.12,1.43-.23,2.14-.04.28.24.71-.33.74-.58.03-.51-.4-.52-.77-.02-1.06-.14-1.98-.76-3.02-.78-1.3-.45-3.04-.14-4.57.17-.84.87-.99,1.7-.98.96.02.72.99,1.24,1.34.05.03,0,.34-.1.43-.95.87-1.02,2.32-2.06,3.14-.16.12-.34.29-.1.49.24.2.36-.06.5-.17.82-.63,1.12-1.61,1.75-2.7Z" style="fill: #201b18;"/>
    <path d="m126.6,88.11c.32-1.43-.07-2.91.23-4.38,1.24,1.51,1.27,3.28.29,5.04-.63,1.14-1.29,2.32-1.07,3.86-.57-.32-.47-.63-.45-.89.09-1.29-.12-2.33-1.24-3.3-.72-.61-.4-1.95-.09-2.89.16-.46.35-.89.33-1.38-.03-.77.54-.81,1.06-.85.71-.07.5.5.51.86.02,1.3,0,2.6,0,3.9.14.01.28.02.42.03Z" style="fill: #201b18;"/>
    <path d="m185.45,171.12c-.42.64-1.08.45-1.57.67-1.09.51-2.32.58-3.43,1.12-1.03.5-1.39.18-1.41-1,0-.42.01-.81-.38-1.1-.76-.54-1.02-1.45-1.58-2.16.75-.33,1.38-.86,2.28-.85.81,0,1.29.19,1.17,1.11-.15,1.11.13,1.53,1.44,1.77,1.12.2,2.27.25,3.48.45Z" style="fill: #201b18;"/>
    <path d="m126.41,52.98c.45,1.73,1.38,2.87,2.28,4.04.45.59.54.83-.41,1.04-1.54.35-3,.38-4.51-.03-.57-.16-.65-.37-.32-.75,1.09-1.25,1.9-2.69,2.97-4.3Z" style="fill: #201b18;"/>
    <path d="m153.43,86.95c-.09.5.27,1.3-.17,1.46-.64.23-.58-.7-.92-1.04-.52-.53-.98-1.14-1.58-1.56-.85-.6-.48-1.33-.29-1.96.2-.65.9-.5,1.46-.55.53-.05.92.33.9.65-.04,1.06.93,1.9.59,3Z" style="fill: #201b18;"/>
    <path d="m177.12,87.07c1.18-.18,2.23.51,2.02,1.17-.21.66-.07,1.44-.46,1.97-.39.54-.37,1.06-.38,1.63,0,.33.04.64-.47.67-.59.03-.56-.31-.55-.7,0-.45,0-.91,0-1.36,0-.68.1-1.33-.69-1.75-.47-.25-.7-.84-.5-1.4.23-.62.82-.04,1.03-.23Z" style="fill: #201b18;"/>
    <path d="m126.12,63.19c-1.21-1.36-2.19-2.46-3.16-3.55-.17-.19-.59-.38-.2-.65.26-.19.36-.67.87-.51.64.19,1.31.38,1.97.43.49.04.52.25.52.62,0,1.1,0,2.2,0,3.67Z" style="fill: #201b18;"/>
    <path d="m152.78,88.96c-1.51.8-.47,2.39-.97,3.5-.27.01-.38-.12-.34-.3.24-1.27-.25-2.36-1.06-3.21-.89-.94-.7-1.97-.66-3.18,1.44.74,2.12,2.08,3.03,3.19Z" style="fill: #201b18;"/>
    <path d="m176.41,168.82c-.85,0-1.67.01-2.49,0-.27,0-.62.16-.79-.14-.2-.35.11-.58.29-.85.71-1.08,1.81-2,1.44-3.56,1.11,1.31,1.37,2.86,1.55,4.56Z" style="fill: #201b18;"/>
    <path d="m73.43,91.38c-.14-.59.09-1.03-.4-1.54-.37-.38-.42-1.35.27-1.85.65-.47,1.42-.63,2.19-.39.29.09.23.6.03.73-1.16.73-.85,1.87-.92,2.93-.03.45.44,1.25-.62,1.24-1.12,0-.31-.87-.54-1.13Z" style="fill: #201b18;"/>
    <path d="m144.58,155.94c2.59-2.37,5.66-3.91,8.93-5.1.06.11.12.21.18.32l-8.88,5.08-.23-.3Z" style="fill: #201b18;"/>
    <path d="m126.72,62.77c0-1.2.02-2.19,0-3.17-.01-.48.2-.92.62-.87.68.07,1.39-.75,2.03.08.28.36.24.66-.04.98-.82.93-1.43,2.04-2.61,2.97Z" style="fill: #201b18;"/>
    <path d="m137.29,161.51c1.25-1.32,2.36-2.8,4.19-3.4.05.06.1.12.16.18-1.35,1.13-2.71,2.25-4.06,3.38-.1-.05-.19-.1-.29-.16Z" style="fill: #201b18;"/>
    <path d="m138.28,85.85c.57.18.71.59.87.94.15.33.27.7-.06,1-.05.05-.17.26-.25.06-.15-.34-.7-.41-.57-.94.07-.31.01-.65.01-1.06Z" style="fill: #201b18;"/>
    <path d="m102.92,84.57c.04,1.11.13,1.9-.23,2.66-.12-.79-.42-1.6.23-2.66Z" style="fill: #201b18;"/>
    <path d="m137.31,161.89c-.14.26-.3.47-.8.4.26-.26.47-.46.67-.66.04.09.09.18.13.26Z" style="fill: #201b18;"/>
    <path d="m144.47,156.27c-.06.04-.12.09-.19.1-.11.02-.21,0-.17-.15.01-.04.13-.08.19-.07.06,0,.11.07.17.11Z" style="fill: #201b18;"/>
    <path d="m141.49,158.11c.1-.23.25-.25.45-.13-.1.1-.2.21-.3.31-.05-.06-.11-.12-.16-.18Z" style="fill: #201b18;"/>
    <path d="m137.18,161.63s.07-.08.11-.12c.1.05.19.1.29.16-.09.08-.18.15-.27.23-.04-.09-.09-.18-.13-.26Z" style="fill: #201b18;"/>
    <path d="m121.75,54.61c-.09.01-.24.06-.27.02-.09-.12.04-.14.13-.17.05.04.1.09.14.14Z" style="fill: #201b18;"/>
    <path d="m126.59,171.31c-.05.05-.09.11-.14.16,0-.1,0-.2-.01-.3.06.04.11.09.15.14Z" style="fill: #201b18;"/>
    <path d="m129.32,186.19c-.02.66.03,1.25-.22,1.86-.2.47-.41.83-.9.88-.54.06-.89-.4-1.02-.78-.43-1.2-.49-2.45.16-3.61.21-.37.39-.9.98-.76.46.1.66.46.86.9.24.54.04,1.06.14,1.52Z" style="fill: #201b18;"/>
    <path d="m141.51,187.4c.2.58-.24,1.21-.31,1.88-.07.6-.56,1.13-1.1,1.11-.63-.02-.97-.68-1.06-1.28-.16-.98.01-1.95.35-2.87.19-.51.49-1.15,1.21-.99.7.15.89.76.91,1.41,0,.2,0,.41,0,.75Z" style="fill: #201b18;"/>
    <path d="m158.4,193.32c-.08.33-.22,1-.39,1.66-.13.49-.38,1-.97.92-.6-.08-1.08-.54-1.09-1.14-.01-.84-.13-1.69.15-2.55.23-.71.36-1.31,1.31-1.28,1.03.04.67.95.98,1.43.09.14.01.4.01.95Z" style="fill: #201b18;"/>
    <path d="m136.55,186.69c-.46-.07-1.16-.04-.95-.7.13-.4-.16-1.35.77-1.23.53.07,1.2.22,1.14.99-.04.53-.19,1.08-.96.95Z" style="fill: #201b18;"/>
    <path d="m144.44,187.71v2.19c-1.16-.33-1.15-.75,0-2.19Z" style="fill: #201b18;"/>
    <path d="m141.57,191.03s.06-.01.08,0c.02.02.05.06.04.08-.05.11-.11.11-.16,0,0-.02.03-.05.04-.08Z" style="fill: #201b18;"/>
    <path d="m106.08,192.39q-.63-.95-.3-3.71c.44,1.12,1.13,1.62,2.21,1.54.39-.03.66.18.71.67.06.58-.16.96-.62,1.23-.35.2-.62,0-.84-.29-.2-.27-.22-.77-.76-.63-.72.19-.04.81-.41,1.18Z" style="fill: #201b18;"/>
    <path d="m102.49,192.76c.16,1.77-1.25,1.22-1.91,1.63-.43.27-.56-.1-.58-.57-.03-1.27.37-1.72,1.67-1.89.96-.12.85.47.82.83Z" style="fill: #201b18;"/>
    <path d="m102.04,189.7c-.02.76-1.12,1.59-1.98,1.45-.58-.09-.68-.7-.55-1.16.3-1.05,1.37-.74,2.09-.98.6-.2.27.52.44.69Z" style="fill: #201b18;"/>
    <path d="m109.37,189.53c-.44-.61-1.04-.81-1.76-.83-.39-.01-.83-.1-.91-.6-.05-.27-.12-.66.14-.79.39-.2.8.03,1.22.13,1.23.28,1.56.96,1.31,2.1Z" style="fill: #201b18;"/>
    <path d="m104.72,189.11c.11.92-.63.99-1.19,1.06-.95.13-.67-.88-.73-1.21-.14-.76.74-.65,1.21-.74.63-.12.67.43.7.89Z" style="fill: #201b18;"/>
    <path d="m115.27,186.73c.14.45.3.89.43,1.34.06.21.49.5-.07.65-.27.07-.55.33-.81.15-.28-.2-.1-.48,0-.77.13-.42.14-.87.2-1.31.09-.02.17-.03.26-.05Z" style="fill: #201b18;"/>
    <path d="m165.88,193.02c-.04.81,0,1.36-.22,1.93-.17.43-.25.73-.79.74-.52.01-.89-.14-1.05-.65-.32-1.03-.71-2.04-.21-3.16.27-.61.58-1.21,1.25-1.11.64.09.93.75,1.01,1.39.04.37,0,.74,0,.86Z" style="fill: #201b18;"/>
  </g>
</svg>